<?xml version="1.0" encoding="UTF-8"?>
<!DOCTYPE svg PUBLIC "-//W3C//DTD SVG 1.1//EN" "http://www.w3.org/Graphics/SVG/1.1/DTD/svg11.dtd">
<!-- Creator: CorelDRAW 2026 -->
<svg xmlns="http://www.w3.org/2000/svg" xml:space="preserve" width="6.37537in" height="6.37537in" version="1.1" shape-rendering="geometricPrecision" text-rendering="geometricPrecision" image-rendering="optimizeQuality" fill-rule="evenodd" clip-rule="evenodd"
viewBox="0 0 6816.6 6816.6"
 xmlns:xlink="http://www.w3.org/1999/xlink"
 xmlns:xodm="http://www.corel.com/coreldraw/odm/2003">
 <g id="Layer_x0020_1">
  <metadata id="CorelCorpID_0Corel-Layer"/>
  <g id="_3022496221296">
   <circle fill="#FEFEFE" stroke="#122272" stroke-width="356.4" stroke-miterlimit="2.61313" cx="3408.3" cy="3408.3" r="3230.1"/>
   <g>
    <path fill="#122272" fill-rule="nonzero" d="M3408.3 821.51c-1307.69,614.4 -2394.82,2404 -2671.5,3738.94 798.99,0 1383.45,254.43 1805.25,701.97l116.61 -127.36c-312.5,-321.56 -723.19,-584.1 -1264.77,-845.37 291.14,-724.28 735.36,-1820.44 1299.92,-1884.26 220.91,-24.98 457.18,108.42 714.5,483.77 805.54,-1339.45 1570.48,429.22 2014.42,1400.49 -531.09,287.94 -941.09,550.87 -1258.16,876.69l103.01 115.89c415.8,-442.79 998.52,-721.81 1812.23,-721.81 -328.17,-1318.25 -1336.56,-3089.21 -2671.51,-3738.94zm-887.84 2709.81c-170.4,-0.93 -294.08,71.67 -294.08,185.5 0,140.1 187.48,289.99 418.69,334.81 231.21,44.81 418.69,-32.52 418.69,-172.62 0,-140.1 -187.49,-289.99 -418.69,-334.82 -43.36,-8.41 -85.28,-12.66 -124.6,-12.87l-0 0zm1741.22 0c-39.31,0.22 -81.25,4.45 -124.6,12.87 -231.21,44.83 -418.68,194.71 -418.68,334.82 0,140.1 187.47,217.44 418.67,172.62 231.21,-44.83 418.69,-194.72 418.69,-334.81 0,-113.82 -123.68,-186.43 -294.09,-185.5l0.01 0z"/>
   </g>
  </g>
 </g>
</svg>
