<svg viewBox="0 0 65 66" fill="none" xmlns="http://www.w3.org/2000/svg">
                        <path d="M40.5573 8.67643L43.1573 3.9856C43.1905 3.92549 43.2116 3.85942 43.2193 3.79117C43.2271 3.72291 43.2213 3.6538 43.2023 3.58778C43.1833 3.52177 43.1515 3.46013 43.1087 3.40641C43.0659 3.35268 43.0129 3.30792 42.9528 3.27466C42.8927 3.24141 42.8266 3.22032 42.7584 3.2126C42.6901 3.20488 42.621 3.21067 42.555 3.22966C42.489 3.24865 42.4273 3.28045 42.3736 3.32326C42.3199 3.36607 42.2751 3.41903 42.2419 3.47914L39.6148 8.21872C37.3722 7.2353 34.9501 6.72756 32.5013 6.72756C30.0526 6.72756 27.6305 7.2353 25.3879 8.21872L22.7608 3.47914C22.6937 3.35703 22.5807 3.2666 22.4469 3.22775C22.3131 3.18889 22.1693 3.20479 22.0472 3.27195C21.9251 3.33911 21.8346 3.45203 21.7958 3.58587C21.7569 3.7197 21.7728 3.86349 21.84 3.9856L24.44 8.67643C21.9669 9.89749 19.8775 11.7754 18.4005 14.1047C16.9234 16.4339 16.1158 19.1246 16.0658 21.8823H48.9369C48.8864 19.1241 48.0779 16.433 46.5999 14.1037C45.1219 11.7744 43.0314 9.89674 40.5573 8.67643ZM24.9167 15.8671C24.645 15.8671 24.3794 15.7865 24.1535 15.6355C23.9276 15.4845 23.7516 15.2698 23.6478 15.0188C23.544 14.7677 23.5169 14.4915 23.5701 14.2251C23.6233 13.9586 23.7544 13.714 23.9467 13.522C24.139 13.3301 24.3839 13.1995 24.6504 13.1469C24.917 13.0942 25.1932 13.1218 25.444 13.2261C25.6949 13.3305 25.9091 13.5069 26.0597 13.733C26.2102 13.9592 26.2903 14.2249 26.2898 14.4966C26.2891 14.8603 26.1441 15.2089 25.8867 15.4658C25.6292 15.7228 25.2804 15.8671 24.9167 15.8671ZM40.0887 15.8671C39.817 15.8671 39.5515 15.7865 39.3256 15.6355C39.0997 15.4845 38.9237 15.2698 38.8199 15.0188C38.716 14.7677 38.689 14.4915 38.7422 14.2251C38.7954 13.9586 38.9264 13.714 39.1188 13.522C39.3111 13.3301 39.556 13.1995 39.8225 13.1469C40.0891 13.0942 40.3652 13.1218 40.6161 13.2261C40.867 13.3305 41.0812 13.5069 41.2318 13.733C41.3823 13.9592 41.4624 14.2249 41.4619 14.4966C41.4611 14.8603 41.3162 15.2089 41.0587 15.4658C40.8013 15.7228 40.4524 15.8671 40.0887 15.8671ZM16.0604 47.0048C16.0597 47.5277 16.1622 48.0456 16.3621 48.5288C16.5619 49.012 16.8552 49.451 17.2251 49.8206C17.5949 50.1902 18.0341 50.4832 18.5175 50.6827C19.0008 50.8822 19.5188 50.9844 20.0417 50.9833H22.6769V59.1083C22.6769 60.0855 23.0651 61.0228 23.7561 61.7138C24.4471 62.4048 25.3843 62.793 26.3616 62.793C27.3388 62.793 28.276 62.4048 28.967 61.7138C29.658 61.0228 30.0462 60.0855 30.0462 59.1083V50.9833H34.9592V59.1083C34.9592 60.0852 35.3472 61.0221 36.038 61.7128C36.7287 62.4036 37.6656 62.7916 38.6425 62.7916C39.6194 62.7916 40.5562 62.4036 41.247 61.7128C41.9378 61.0221 42.3258 60.0852 42.3258 59.1083V50.9833H44.9637C45.486 50.9837 46.0031 50.8811 46.4856 50.6814C46.9682 50.4817 47.4066 50.1889 47.7759 49.8196C48.1451 49.4503 48.438 49.0119 48.6377 48.5294C48.8373 48.0468 48.9399 47.5297 48.9396 47.0075V23.1823H16.0604V47.0048ZM11.004 22.5485C10.52 22.5485 10.0408 22.6439 9.59378 22.8292C9.14672 23.0144 8.74055 23.286 8.39848 23.6283C8.05642 23.9706 7.78516 24.377 7.60022 24.8242C7.41527 25.2714 7.32026 25.7506 7.32062 26.2346V41.5881C7.32062 42.0718 7.41589 42.5508 7.601 42.9976C7.7861 43.4445 8.05741 43.8506 8.39944 44.1926C8.74147 44.5346 9.14752 44.806 9.5944 44.9911C10.0413 45.1762 10.5203 45.2714 11.004 45.2714C11.4877 45.2714 11.9666 45.1762 12.4135 44.9911C12.8604 44.806 13.2664 44.5346 13.6085 44.1926C13.9505 43.8506 14.2218 43.4445 14.4069 42.9976C14.592 42.5508 14.6873 42.0718 14.6873 41.5881V26.2346C14.6873 25.7509 14.592 25.2719 14.4069 24.825C14.2218 24.3781 13.9505 23.9721 13.6085 23.63C13.2664 23.288 12.8604 23.0167 12.4135 22.8316C11.9666 22.6465 11.4877 22.5512 11.004 22.5512M53.9906 22.5512C53.5067 22.5512 53.0275 22.6466 52.5804 22.8319C52.1334 23.0171 51.7272 23.2887 51.3851 23.631C51.0431 23.9733 50.7718 24.3797 50.5869 24.8269C50.4019 25.2741 50.3069 25.7533 50.3073 26.2373V41.5908C50.3073 42.0745 50.4026 42.5535 50.5877 43.0004C50.7728 43.4472 51.0441 43.8533 51.3861 44.1953C51.7281 44.5373 52.1342 44.8087 52.5811 44.9938C53.028 45.1789 53.5069 45.2741 53.9906 45.2741C54.4743 45.2741 54.9533 45.1789 55.4002 44.9938C55.8471 44.8087 56.2531 44.5373 56.5951 44.1953C56.9372 43.8533 57.2085 43.4472 57.3936 43.0004C57.5787 42.5535 57.674 42.0745 57.674 41.5908V26.2346C57.674 25.2577 57.2859 24.3208 56.5951 23.63C55.9044 22.9393 54.9675 22.5512 53.9906 22.5512Z" fill="url(#paint0_linear_6283_6)"/>
                        <defs>
                            <linearGradient id="paint0_linear_6283_6" x1="32.4973" y1="3.20691" x2="32.4973" y2="62.793" gradientUnits="userSpaceOnUse">
                                <stop offset="0.0769231" stop-color="white"/>
                                <stop offset="1" stop-color="#9066FB"/>
                            </linearGradient>
                        </defs>
                    </svg>