<svg width="324" height="324" viewBox="0 0 324 324" fill="none" xmlns="http://www.w3.org/2000/svg">
<rect width="324" height="324" fill="url(#paint0_linear_6_10470)"/>
<path d="M110 0H324V324H240.5L110 0Z" fill="white"/>
<circle cx="162.5" cy="160.5" r="118.5" fill="white" stroke="url(#paint1_linear_6_10470)" stroke-width="14"/>
<path d="M55 259.132C55 244.147 67.1473 232 82.1318 232H243.339C258.323 232 270.47 244.147 270.47 259.132C270.47 274.116 258.323 286.264 243.339 286.264H82.1318C67.1473 286.264 55 274.116 55 259.132Z" fill="#122272"/>
<path d="M98.11 258.865C98.11 256.275 98.628 253.969 99.664 251.946C100.725 249.923 102.229 248.357 104.178 247.247C106.127 246.112 108.421 245.545 111.06 245.545C113.329 245.545 115.352 245.977 117.128 246.84C118.929 247.679 120.384 248.875 121.494 250.429C122.629 251.983 123.381 253.796 123.751 255.868H115.093C114.698 255.005 114.131 254.339 113.391 253.87C112.676 253.377 111.849 253.13 110.912 253.13C109.531 253.13 108.433 253.648 107.619 254.684C106.83 255.72 106.435 257.114 106.435 258.865C106.435 260.616 106.83 262.01 107.619 263.046C108.433 264.082 109.531 264.6 110.912 264.6C111.849 264.6 112.676 264.366 113.391 263.897C114.131 263.404 114.698 262.725 115.093 261.862H123.751C123.381 263.934 122.629 265.747 121.494 267.301C120.384 268.855 118.929 270.064 117.128 270.927C115.352 271.766 113.329 272.185 111.06 272.185C108.421 272.185 106.127 271.63 104.178 270.52C102.229 269.385 100.725 267.807 99.664 265.784C98.628 263.761 98.11 261.455 98.11 258.865ZM134.922 265.784H142.84V272H126.708V245.804H134.922V265.784ZM153.639 245.804V272H145.425V245.804H153.639ZM165.563 252.353V255.572H173.703V261.751H165.563V265.451H174.813V272H157.349V245.804H174.813V252.353H165.563ZM203.032 272H194.818L186.123 258.828V272H177.909V245.804H186.123L194.818 259.198V245.804H203.032V272ZM227.315 245.804V252.316H220.359V272H212.145V252.316H205.263V245.804H227.315Z" fill="#41FAA4"/>
<g clip-path="url(#clip0_6_10470)">
<path d="M162.04 60C113.085 83.0013 72.3849 149.999 62.0258 199.974C91.9372 199.974 113.818 209.502 129.611 226.257L133.976 221.487C122.275 209.451 106.902 199.621 86.6252 189.841C97.5262 162.724 114.156 121.686 135.291 119.296C143.562 118.362 152.405 123.357 162.04 137.409C192.198 87.2631 220.834 153.479 237.455 189.841C217.571 200.62 202.222 210.461 190.353 222.659L194.21 227C209.775 210.422 231.592 199.977 262.054 199.977C249.768 150.623 212.018 84.3255 162.04 60ZM128.801 161.448C122.421 161.415 117.791 164.133 117.791 168.392C117.791 173.637 124.811 179.25 133.465 180.927C142.122 182.605 149.142 179.71 149.142 174.465C149.142 169.22 142.122 163.609 133.465 161.929C131.842 161.616 130.275 161.457 128.801 161.448ZM193.988 161.448C192.518 161.457 190.947 161.616 189.324 161.929C180.667 163.609 173.65 169.22 173.65 174.465C173.65 179.71 180.667 182.605 189.321 180.927C197.979 179.25 204.999 173.637 204.999 168.392C204.999 164.133 200.368 161.412 193.988 161.448Z" fill="#122272"/>
</g>
<defs>
<linearGradient id="paint0_linear_6_10470" x1="-7.40349e-06" y1="248" x2="324" y2="4.97699e-06" gradientUnits="userSpaceOnUse">
<stop stop-color="#16A4FD"/>
<stop offset="0.79" stop-color="#41FAA4"/>
</linearGradient>
<linearGradient id="paint1_linear_6_10470" x1="256" y1="75" x2="63" y2="245.5" gradientUnits="userSpaceOnUse">
<stop stop-color="#41FAA4"/>
<stop offset="1" stop-color="#16A4FD"/>
</linearGradient>
<clipPath id="clip0_6_10470">
<rect width="200.08" height="167" fill="white" transform="translate(62 60)"/>
</clipPath>
</defs>
</svg>
