<svg width="324" height="324" viewBox="0 0 324 324" fill="none" xmlns="http://www.w3.org/2000/svg">
<rect width="324" height="324" fill="url(#paint0_linear_6_10470)"/>
<path d="M110 0H324V324H240.5L110 0Z" fill="#7574F3"/>
<circle cx="162.5" cy="160.5" r="118.5" fill="white" stroke="#211951" stroke-width="14"/>
<path d="M55 260.132C55 245.147 67.1473 233 82.1318 233H243.339C258.323 233 270.47 245.147 270.47 260.132C270.47 275.116 258.323 287.264 243.339 287.264H82.1318C67.1473 287.264 55 275.116 55 260.132Z" fill="#211951"/>
<path d="M69.11 259.865C69.11 257.275 69.628 254.969 70.664 252.946C71.7247 250.923 73.2293 249.357 75.178 248.247C77.1267 247.112 79.4207 246.545 82.06 246.545C84.3293 246.545 86.352 246.977 88.128 247.84C89.9287 248.679 91.384 249.875 92.494 251.429C93.6287 252.983 94.381 254.796 94.751 256.868H86.093C85.6983 256.005 85.131 255.339 84.391 254.87C83.6757 254.377 82.8493 254.13 81.912 254.13C80.5307 254.13 79.433 254.648 78.619 255.684C77.8297 256.72 77.435 258.114 77.435 259.865C77.435 261.616 77.8297 263.01 78.619 264.046C79.433 265.082 80.5307 265.6 81.912 265.6C82.8493 265.6 83.6757 265.366 84.391 264.897C85.131 264.404 85.6983 263.725 86.093 262.862H94.751C94.381 264.934 93.6287 266.747 92.494 268.301C91.384 269.855 89.9287 271.064 88.128 271.927C86.352 272.766 84.3293 273.185 82.06 273.185C79.4207 273.185 77.1267 272.63 75.178 271.52C73.2293 270.385 71.7247 268.807 70.664 266.784C69.628 264.761 69.11 262.455 69.11 259.865ZM110.473 273.259C108.007 273.259 105.737 272.679 103.665 271.52C101.618 270.361 99.9901 268.757 98.7814 266.71C97.5727 264.663 96.9684 262.356 96.9684 259.791C96.9684 257.226 97.5727 254.919 98.7814 252.872C99.9901 250.825 101.618 249.234 103.665 248.099C105.737 246.94 108.007 246.36 110.473 246.36C112.94 246.36 115.197 246.94 117.244 248.099C119.292 249.234 120.907 250.825 122.091 252.872C123.3 254.919 123.904 257.226 123.904 259.791C123.904 262.356 123.3 264.663 122.091 266.71C120.907 268.757 119.279 270.361 117.207 271.52C115.16 272.679 112.915 273.259 110.473 273.259ZM110.473 265.6C112.101 265.6 113.359 265.082 114.247 264.046C115.135 262.985 115.579 261.567 115.579 259.791C115.579 257.99 115.135 256.572 114.247 255.536C113.359 254.475 112.101 253.945 110.473 253.945C108.821 253.945 107.55 254.475 106.662 255.536C105.774 256.572 105.33 257.99 105.33 259.791C105.33 261.567 105.774 262.985 106.662 264.046C107.55 265.082 108.821 265.6 110.473 265.6ZM151.991 273H143.777L135.082 259.828V273H126.868V246.804H135.082L143.777 260.198V246.804H151.991V273ZM180.825 273H172.611L163.916 259.828V273H155.702V246.804H163.916L172.611 260.198V246.804H180.825V273ZM192.75 253.353V256.572H200.89V262.751H192.75V266.451H202V273H184.536V246.804H202V253.353H192.75ZM204.355 259.865C204.355 257.275 204.873 254.969 205.909 252.946C206.97 250.923 208.474 249.357 210.423 248.247C212.372 247.112 214.666 246.545 217.305 246.545C219.574 246.545 221.597 246.977 223.373 247.84C225.174 248.679 226.629 249.875 227.739 251.429C228.874 252.983 229.626 254.796 229.996 256.868H221.338C220.943 256.005 220.376 255.339 219.636 254.87C218.921 254.377 218.094 254.13 217.157 254.13C215.776 254.13 214.678 254.648 213.864 255.684C213.075 256.72 212.68 258.114 212.68 259.865C212.68 261.616 213.075 263.01 213.864 264.046C214.678 265.082 215.776 265.6 217.157 265.6C218.094 265.6 218.921 265.366 219.636 264.897C220.376 264.404 220.943 263.725 221.338 262.862H229.996C229.626 264.934 228.874 266.747 227.739 268.301C226.629 269.855 225.174 271.064 223.373 271.927C221.597 272.766 219.574 273.185 217.305 273.185C214.666 273.185 212.372 272.63 210.423 271.52C208.474 270.385 206.97 268.807 205.909 266.784C204.873 264.761 204.355 262.455 204.355 259.865ZM253.526 246.804V253.316H246.57V273H238.356V253.316H231.474V246.804H253.526Z" fill="#E7B481"/>
<g clip-path="url(#clip0_6_10470)">
<path d="M162.04 60C113.085 83.0013 72.3849 149.999 62.0258 199.974C91.9372 199.974 113.818 209.502 129.611 226.257L133.976 221.487C122.275 209.451 106.902 199.621 86.6252 189.841C97.5262 162.724 114.156 121.686 135.291 119.296C143.562 118.362 152.405 123.357 162.04 137.409C192.198 87.2631 220.834 153.479 237.455 189.841C217.571 200.62 202.222 210.461 190.353 222.659L194.21 227C209.775 210.422 231.592 199.977 262.054 199.977C249.768 150.623 212.018 84.3255 162.04 60ZM128.801 161.448C122.421 161.415 117.791 164.133 117.791 168.392C117.791 173.637 124.811 179.25 133.465 180.927C142.122 182.605 149.142 179.71 149.142 174.465C149.142 169.22 142.122 163.609 133.465 161.929C131.842 161.616 130.275 161.457 128.801 161.448ZM193.988 161.448C192.518 161.457 190.947 161.616 189.324 161.929C180.667 163.609 173.65 169.22 173.65 174.465C173.65 179.71 180.667 182.605 189.321 180.927C197.979 179.25 204.999 173.637 204.999 168.392C204.999 164.133 200.368 161.412 193.988 161.448Z" fill="#211951"/>
</g>
<defs>
<linearGradient id="paint0_linear_6_10470" x1="-7.40349e-06" y1="248" x2="324" y2="4.97699e-06" gradientUnits="userSpaceOnUse">
<stop stop-color="#211951"/>
<stop offset="0.79" stop-color="#7574F2"/>
</linearGradient>
<clipPath id="clip0_6_10470">
<rect width="200.08" height="167" fill="white" transform="translate(62 60)"/>
</clipPath>
</defs>
</svg>
