<svg width="591" height="427" viewBox="0 0 591 427" fill="none" xmlns="http://www.w3.org/2000/svg">
<g clip-path="url(#clip0_6366_25)">
<path d="M330.844 543.049L330.121 548.829L329.497 553.326L328.881 557.336L328.249 561.009L327.58 564.464L326.842 567.847L325.984 571.35L324.727 575.83M330.844 543.049L340.81 544.063L348.947 544.663L356.577 545.013L363.986 545.127L371.408 545.004L379.188 544.625L387.823 543.942L399.863 542.568M330.844 543.049L337.714 537.647L343.346 532.96L348.642 528.312L353.796 523.529L358.977 518.45L364.418 512.825L370.478 506.258L378.963 496.567M330.844 543.049L325.06 538.466L320.254 534.454L315.676 530.438L311.153 526.274L306.544 521.817L301.626 516.845L296.075 511.005L288.177 502.331M330.844 543.049L320.393 545.391L311.778 547.081L303.63 548.46L295.643 549.578L287.558 550.464L279.004 551.149L269.418 551.655L255.906 551.94M324.727 575.83L336.897 576.653L345.829 576.806L353.956 576.622L361.723 576.128L369.441 575.314L377.439 574.128L386.174 572.458L398.066 569.557M324.727 575.83L323.345 579.864L322.289 582.474L321.3 584.555L320.324 586.246L319.322 587.615L318.249 588.713L317.042 589.569L315.344 590.173M324.727 575.83L312.823 574.014L304.249 572.163L296.528 570.094L289.2 567.746L281.957 565.049L274.521 561.867L266.523 557.965L255.906 551.94M324.727 575.83L337.915 572.359L347.379 569.322L355.872 566.189L363.891 562.838L371.779 559.156L379.834 554.97L388.462 549.998L399.863 542.568M324.727 575.83L311.188 578.353L301.198 579.758L292.048 580.72L283.24 581.321L274.414 581.6L265.186 581.55L255.018 581.128L241.019 579.926M399.863 542.568L398.197 536.14L396.507 531.167L394.641 526.423L392.565 521.659L390.228 516.689L387.501 511.305L384.157 505.201L378.963 496.567M399.863 542.568L400.603 548.504L400.813 552.541L400.81 555.965L400.645 558.984L400.336 561.715L399.873 564.26L399.215 566.727L398.066 569.557M399.863 542.568L412.242 540.552L421.246 538.74L429.351 536.827L436.993 534.729L444.484 532.365L452.143 529.619L460.398 526.305L471.425 521.29M399.863 542.568L410.666 534.27L418.328 527.805L425.164 521.62L431.587 515.395L437.881 508.875L444.316 501.758L451.257 493.583L460.558 481.765M378.963 496.567L372.868 487.586L368.092 480.791L359.038 468.043L354.391 461.452L349.406 454.318L343.778 446.182L335.804 434.51M378.963 496.567L364.46 497.967L353.692 498.925L343.775 499.725L334.184 500.394L324.538 500.947L314.446 501.417L303.351 501.848L288.177 502.331M378.963 496.567L393.127 495.085L403.305 493.866L412.449 492.603L421.091 491.213L429.603 489.615L438.346 487.722L447.81 485.391L460.558 481.765M378.963 496.567L387.727 485.85L394.132 477.611L399.916 469.835L405.385 462.133L410.758 454.196L416.267 445.664L422.22 436.013L430.2 422.363M288.177 502.331L295.506 492.473L301.078 485.007L306.26 477.987L311.298 471.025L316.379 463.818L321.717 456.033L327.629 447.177L335.804 434.51M288.177 502.331L281.535 511.748L277.026 518.375L273.157 524.204L269.65 529.572L266.329 534.704L263.097 539.798L259.834 545.117L255.906 551.94M288.177 502.331L279.84 492.661L273.645 485.185L267.967 478.097L262.508 471.042L257.054 463.74L251.366 455.857L245.108 446.907L236.543 434.184M288.177 502.331L273.039 502.706L262.01 502.83L251.988 502.78L242.404 502.539L232.856 502.08L222.923 501.36L212.04 500.304L197.15 498.402M255.906 551.94L245.797 544.961L238.573 539.425L232.076 534.063L225.909 528.607L219.798 522.84L213.473 516.486L206.563 509.129L197.15 498.402M255.906 551.94L252.754 558.16L248.985 565.921L247.434 569.045L245.965 571.868L244.509 574.491L242.986 577.027L241.019 579.926M255.906 551.94L241.81 551.64L231.435 551.082L222.003 550.299L213.007 549.27L204.088 547.956L194.86 546.284L184.793 544.131L171.149 540.667M398.066 569.557L384.728 574.92L374.884 578.378L365.86 581.178L357.155 583.52L348.409 585.518L339.256 587.24L329.175 588.748L315.557 590.151L315.344 590.173M398.066 569.557L396.551 571.625L395.281 572.727L394.012 573.415M398.066 569.557L409.884 565.771L418.394 562.58L426.013 559.369L433.159 556.001L440.119 552.358M398.066 569.557L411.096 563.335L420.43 558.363L428.779 553.522L436.623 548.573L444.295 543.326L452.096 537.556L460.426 530.905L471.425 521.29M315.344 590.173L327.388 588.969L334.881 588.104L343.4 586.78L348.599 585.912L355.628 584.544L359.725 583.667L365.434 582.343L371.82 580.636L378.878 578.534L386.364 576.095L394.012 573.415M315.344 590.173L303.176 590.477L294.252 590.233L286.109 589.658L278.282 588.758L270.444 587.509L262.264 585.842L253.283 583.617L241.019 579.926M315.344 590.173L301.501 590.69L295.679 590.711L287.139 590.607L281.738 590.357L274.692 590.004L267.351 589.357L264.611 589.104L258.113 588.294L250.872 587.169L243.141 585.758L235.186 584.122M241.019 579.926L239.237 582.022L238.028 583.125L236.991 583.801L236.059 584.125L235.186 584.122M241.019 579.926L240.719 579.811L228.917 575.33L220.178 571.518L212.307 567.709L204.857 563.729L197.515 559.425L189.996 554.605L181.913 548.963L171.149 540.667M241.019 579.926L226.899 577.834L216.615 575.862L207.319 573.744L198.507 571.403L189.835 568.76L180.965 565.699L171.443 562.033L158.839 556.533M471.425 521.29L471.264 525.551L470.924 528.241L470.451 530.376L469.82 532.122L468.998 533.578L467.946 534.795L466.583 535.808M471.425 521.29L471.034 516.283L470.402 512.275L469.563 508.365L468.516 504.351L467.24 500.064L465.673 495.313L463.695 489.798L460.558 481.765M471.425 521.29L481.905 510.939L489.326 502.994L495.903 495.478L502.01 488.002L507.895 480.273L513.792 471.957L520.007 462.561L528.06 449.284M471.425 521.29L481.919 515.698L489.207 511.36L495.551 507.221L501.356 503.061L506.894 498.707L512.384 493.987L518.097 488.643L525.37 481.152M460.558 481.765L456.793 473.137L453.743 466.529L450.749 460.291L447.671 454.1L444.384 447.711L440.73 440.861L436.464 433.17L430.2 422.363M460.558 481.765L469.557 469.063L475.929 459.394L481.556 450.341L486.759 441.447L491.752 432.374L496.714 422.764L501.881 412.089L508.438 397.361M460.558 481.765L473.012 477.539L481.878 474.156L489.742 470.863L497.052 467.501L504.101 463.941L511.156 460.047L518.557 455.6L528.06 449.284M335.804 434.51L327.442 422.105L321.188 412.72L315.421 403.968L309.847 395.4L304.259 386.691L298.434 377.498L292.057 367.328L283.398 353.374M335.804 434.51L319.324 435.334L307.264 435.722L296.287 435.914L285.778 435.932L275.303 435.792L264.44 435.497L252.594 435.038L236.543 434.184M335.804 434.51L344.109 421.089L350.181 410.966L355.681 401.544L360.894 392.344L366.022 383.011L371.264 373.185L376.895 362.333L384.36 347.481M335.804 434.51L352.135 433.324L363.925 432.252L374.543 431.122L384.59 429.885L394.491 428.5L404.643 426.923L415.585 425.076L430.2 422.363M430.2 422.363L437.812 408.333L443.113 398.002L447.733 388.548L451.964 379.424L455.999 370.237L459.998 360.622L464.16 350.068L469.451 335.763M430.2 422.363L413.547 394.552L408.803 386.704L403.909 378.698L398.65 370.196L392.718 360.706L384.36 347.481M430.2 422.363L444.317 419.246L454.376 416.697L463.332 414.177L471.714 411.585L479.866 408.842L488.118 405.828L496.903 402.363L508.438 397.361M236.543 434.184L228.122 421.035L222.118 411.316L216.772 402.388L211.762 393.745L206.866 385.016L201.887 375.849L196.571 365.759L189.593 352.039M236.543 434.184L244.03 421.963L249.555 412.729L254.62 404.096L259.521 395.628L264.473 386.994L269.686 377.83L275.455 367.607L283.398 353.374M236.543 434.184L220.714 432.879L209.266 431.626L198.936 430.262L189.145 428.756L179.485 427.072L169.566 425.135L158.851 422.815L144.514 419.327M236.543 434.184L229.283 445.897L224.17 454.225L219.657 461.632L215.459 468.539L211.384 475.228L207.262 481.961L202.884 489.094L197.15 498.402M197.15 498.402L182.285 495.866L171.528 493.688L161.858 491.468L152.741 489.103L143.814 486.508L134.741 483.578L125.061 480.147L112.368 475.132M197.15 498.402L191.86 507.042L188.219 512.969L185.074 518.066L182.224 522.658L179.544 526.952L176.949 531.123L174.333 535.377L171.149 540.667M197.15 498.402L187.832 486.738L181.112 477.798L175.086 469.378L169.416 461.067L163.876 452.546L158.26 443.478L152.293 433.361L144.514 419.327M171.149 540.667L157.897 536.553L148.542 533.241L140.282 529.995L132.602 526.652L125.154 523.075L117.638 519.126L109.681 514.582L99.3307 508.109M171.149 540.667L160.733 531.558L153.253 524.484L146.543 517.731L140.239 510.96L134.087 503.899L127.841 496.245L121.171 487.536L112.368 475.132M171.149 540.667L168.384 545.141L166.515 547.957L164.924 550.186L163.528 552L162.282 553.498L161.14 554.733L160.054 555.739L158.839 556.533M394.012 573.415L401.554 570.602L408.725 567.743L415.245 564.939L418.221 563.576L424.634 560.545L428.846 558.39L435.417 554.951L440.119 552.358M440.119 552.358L447.156 548.29L451.237 545.843L458.663 541.168L466.583 535.808M235.186 584.122L227.272 582.322L219.671 580.414L212.676 578.457L209.977 577.646L202.913 575.404L198.875 573.967L191.483 571.305L186.963 569.525L178.961 566.277M158.839 556.533L147.924 550.016L140.252 544.911L133.475 540.002L127.172 535.036L121.052 529.81L114.848 524.095L108.203 517.543L107.978 517.305L99.3307 508.109M158.839 556.533L146.949 550.41L138.638 545.626M158.839 556.533L157.971 556.484M158.839 556.533L170.332 562.383L178.961 566.277M466.583 535.808L474.698 529.973L482.258 524.185L489.116 518.56L495.445 512.969L497.328 511.255L503.588 505.307M528.06 449.284L529.001 456.022L529.323 460.582L529.348 464.475L529.12 467.964L528.654 471.208L527.947 474.328L526.966 477.451L525.37 481.152M528.06 449.284L536.587 442.729L542.316 437.818L547.172 433.253L551.493 428.784L555.486 424.228L559.312 419.415L563.154 414.103L567.798 406.88M528.06 449.284L535.433 435.507L540.437 425.229L544.696 415.725L548.482 406.479L551.965 397.113L555.283 387.241L558.594 376.309L562.569 361.206M528.06 449.284L526.405 441.832L524.82 436.06L523.091 430.587L521.152 425.149L518.927 419.543L516.328 413.542L513.185 406.8L508.438 397.361M525.37 481.152L516.572 491.567L509.888 498.874L503.588 505.307M525.37 481.152L523.555 483.828M525.37 481.152L531.744 473.684M525.37 481.152L533.669 470.101L539.46 461.695L544.514 453.805L549.13 446.032L553.504 438.074L557.8 429.6L562.226 420.122L567.798 406.88M508.438 397.361L519.23 391.983L526.688 387.905L533.151 384.09L539.024 380.338L544.567 376.494L549.996 372.382L555.572 367.745L562.569 361.206M508.438 397.361L514.175 382.638L517.947 371.889L521.078 362.095L523.788 352.685L526.206 343.249L528.42 333.389L530.506 322.544L532.737 307.662M508.438 397.361L503.145 387.73L498.986 380.599L494.983 374.024L490.933 367.633L486.678 361.147L482.055 354.273L469.714 336.149L469.451 335.763M283.398 353.374L274.917 339.561L268.824 329.542L263.343 320.465L258.144 311.796L247.635 294.226L241.759 284.505L233.619 271.428M283.398 353.374L267.106 353.736L255.428 353.887L244.946 353.937L235.03 353.899L225.239 353.765L215.168 353.501L204.261 353.047L189.593 352.039M283.398 353.374L291.309 338.88L297.067 328.222L302.286 318.48L307.266 309.118L312.207 299.751L317.292 289.985L322.771 279.276L330.088 264.654M283.398 353.374L300.106 352.77L312.429 352.223L323.681 351.657L334.459 351.054L345.182 350.402L356.263 349.664L368.275 348.789L384.36 347.481M384.36 347.481L375.766 333.99L369.372 324.06L363.469 314.979L357.74 306.244L351.951 297.5L330.088 264.654M384.36 347.481L391.426 332.816L396.368 322.203L400.717 312.603L404.748 303.453L408.655 294.352L412.621 284.937L416.896 274.704L422.711 260.934M384.36 347.481L399.765 345.993L410.66 344.83L420.327 343.708L429.369 342.567L438.188 341.353L447.155 339.987L456.748 338.347L469.117 335.831L469.451 335.763M469.451 335.763L462.014 324.348L456.521 315.712L451.464 307.656L441.559 291.8L436.317 283.367L430.552 273.983L422.711 260.934M469.451 335.763L481.497 332.417L489.939 329.602L497.356 326.791L504.194 323.895L510.748 320.833L517.266 317.445L524.063 313.494L532.737 307.662M54.3632 466.848L59.6102 473.319L64.1544 478.5L68.6575 483.258L73.287 487.768L78.1973 492.173L83.6324 496.665L89.9732 501.529L99.3307 508.109M54.3632 466.848L53.0166 463.609L52.1242 460.776L51.4818 457.948L51.0672 455.021L50.8761 451.892L50.9143 448.408L51.2054 444.318L52.0228 438.242M54.3632 466.848L48.5062 458.245L43.9149 451.022L39.7838 444.066L35.9614 437.118L32.3316 429.949L28.7371 422.219L24.9661 413.408L20.0603 400.737M54.3632 466.848L52.3021 464.621L50.8349 462.646M54.3632 466.848L59.1442 473.91L63.2768 479.543L67.3667 484.697M99.3307 508.109L100.516 504.379L101.514 501.211L102.574 498.024L103.772 494.687L105.179 491.074L106.876 487.017L109.001 482.237L112.368 475.132M99.3307 508.109L98.2207 510.776L97.4695 512.181L96.852 513.075L96.3492 513.578L95.9523 513.749L95.6318 513.562M99.3307 508.109L90.7053 497.968L84.5454 490.188L79.0706 482.836L73.9706 475.545L69.0456 468.039L64.0971 459.997L58.8619 450.954L52.0228 438.242M52.0228 438.242L44.747 431.839L39.9058 427.232L35.8526 423.073L32.3066 419.097L29.0987 415.131L26.1231 411.029L23.2681 406.606L20.0603 400.737M52.0228 438.242L60.2012 444.804L66.5919 449.578L72.7181 453.859L78.8927 457.861L85.3672 461.733L92.4445 465.628L100.583 469.75L100.886 469.888L112.368 475.132M52.0228 438.242L53.4576 431.469L54.8484 426.229L56.3876 421.259L58.1371 416.306L60.1718 411.176L62.5931 405.638L65.5805 399.336L70.2012 390.365M52.0228 438.242L45.6261 425.088L41.2186 415.272L37.4345 406.175L34.0531 397.298L30.9438 388.268L27.9873 378.679L25.0529 367.951L21.5598 352.901M20.0603 400.737L18.4784 393.333L17.7536 387.895L17.4081 382.873L17.3905 377.963L17.6904 372.936L18.3431 367.563L19.431 361.498L21.5598 352.901M20.0603 400.737L17.8183 395.156M20.0603 400.737L22.5918 408.283M20.0603 400.737L15.5234 387.166L12.5125 376.975L10.0427 367.544L7.96386 358.379L6.18939 349.115L4.6575 339.345L3.31231 328.479L2.02593 313.408M50.8349 462.646L46.8714 456.663L43.0446 450.569L39.4589 444.5L39.3398 444.291L36.5641 439.277L36.126 438.446L33.0226 432.357L30.1028 426.153L27.3537 419.85L25.6498 415.837L22.5918 408.283M50.8349 462.646L54.8161 468.361L56.6243 470.835L60.776 476.457L64.8572 481.602L67.3667 484.697M67.3667 484.697L71.5655 489.57L74.0721 492.462L78.4619 497.155L80.451 499.275L85.0232 503.818L90.1085 508.591L95.6318 513.562M112.368 475.132L104.07 462.133L98.3075 452.367L93.2972 443.289L88.7339 434.409L84.419 425.369L80.1702 415.797L75.7745 405.149L70.2012 390.365M112.368 475.132L116.374 467.221L119.626 461.069L122.827 455.215L126.132 449.378L129.661 443.343L133.562 436.861L138.056 429.565L144.514 419.327M95.6318 513.562L101.482 518.654L107.447 523.647L113.334 528.315L119.075 532.566L121.731 534.511L128.138 538.894L131.33 541.035L138.638 545.626M70.2012 390.365L60.3923 384.499L53.634 380.15L47.7887 376.143L42.4962 372.242L37.5227 368.273L32.6756 364.067L27.7183 359.387L21.5583 352.901M70.2012 390.365L65.3541 375.265L62.2227 364.061L59.6852 353.739L57.5505 343.74L55.7128 333.666L54.1074 323.091L52.6785 311.419L51.2862 295.381M70.2012 390.365L75.4834 381.071L79.6528 374.184L83.6824 367.849L87.7797 361.704L92.1167 355.486L96.8653 348.946L102.296 341.729L109.992 331.891M70.2012 390.365L80.8009 395.962L88.9603 399.852L96.6933 403.237L104.401 406.344L112.384 409.316L120.987 412.274L130.726 415.368L144.514 419.327M21.5598 352.901L16.3026 346.372L12.9433 341.587L10.2485 337.22L8.01826 333.026L6.14382 328.832L4.559 324.483L3.21528 319.765L2.02593 313.408M17.8183 395.156L14.9191 386.157L11.8377 375.635L9.76334 367.691L7.96974 359.802L6.4599 351.937L6.17175 350.196L4.71924 341.022L3.5049 331.416L2.65074 322.21L2.02593 313.408M17.8183 395.156L20.466 402.48L22.5918 408.283M2.02593 313.408L1.74954 307.051L1.47021 297.225L1.52314 287.321L1.86863 277.945L2.50667 268.938L3.56519 258.889M2.02593 313.408L1.51726 298.306L1.5643 287.385L1.92596 277.538L2.589 268.176L3.56519 258.889M2.02593 313.408L2.30526 304.489L2.97418 297.845L3.93124 291.702L5.19851 285.749L6.81862 279.758L8.87683 273.481L11.529 266.559L15.813 257.047M144.514 419.327L137.402 405.191L132.543 394.821L128.362 385.331L124.589 376.176L121.051 366.963L117.622 357.297L114.157 346.619L109.992 331.891M144.514 419.327L151.298 408.845L156.428 401.069L161.233 393.89L165.97 386.903L170.828 379.802L175.993 372.275L181.73 363.861L189.593 352.039M138.638 545.626L141.243 547.194L149.226 551.815L157.971 556.484M157.971 556.484L166.831 560.839L175.229 564.613L178.961 566.277M21.5583 352.901L18.8092 337.344L17.2067 325.805L16.0644 315.215L15.2896 305.018L14.8442 294.815L14.7163 284.211L14.9338 272.647L15.813 257.047M21.5583 352.901L24.6074 343.908L27.2978 337.165L30.0867 330.912L33.0858 324.827L36.3995 318.672L40.1748 312.206L44.647 305.087L51.2862 295.381M51.2862 295.381L43.665 288.877L38.4753 284.111L34.0517 279.789L30.122 275.681L26.5171 271.631L23.1093 267.479L19.7501 263.006L15.813 257.047M51.2862 295.381L58.5767 285.878L64.2382 279.03L69.6499 272.86L75.0923 267.006L80.7906 261.218L86.9976 255.273L94.0926 248.878L104.294 240.438M51.2862 295.381L59.5441 301.743L65.9083 306.328L71.9551 310.459L78.0047 314.376L84.3072 318.244L91.1346 322.198L98.9014 326.421L109.992 331.891M51.2862 295.381L50.7276 279.349L50.7364 267.701L51.0569 257.158L51.667 247.124L52.5814 237.177L53.859 226.915L55.6158 215.779L58.6061 200.771M109.992 331.891L117.762 322.422L123.481 315.687L128.748 309.658L133.887 303.949L139.126 298.297L144.635 292.516L150.618 286.394L158.075 278.951M109.992 331.891L106.893 316.966L105.175 305.966L104 295.897L103.228 286.217L102.794 276.533L102.715 266.455L103.063 255.432L104.294 240.438M109.992 331.891L121.778 336.625L130.758 339.717L139.197 342.281L147.521 344.518L156.053 346.554L165.149 348.436L175.337 350.196L189.593 352.039M189.593 352.039L183.21 338.877L178.842 329.537L175.071 321.197L171.634 313.311L168.365 305.518L165.154 297.563L161.886 289.154L158.075 278.951M189.593 352.039L197.226 339.64L202.7 330.292L207.626 321.593L212.307 313.107L216.956 304.513L221.734 295.446L226.862 285.383L233.619 271.428M3.56519 258.889L4.89566 249.303L6.66719 238.916L9.54869 225.044M15.813 257.047L12.8345 251.342L11.1467 247.321L9.96327 243.754L9.16645 240.418L8.696 237.15L8.54163 233.792L8.71805 230.126L9.54869 225.044M15.813 257.047L17.4904 241.94L19.1252 231.164L20.9173 221.527L22.9256 212.444L25.219 203.51L27.8844 194.359L31.079 184.492L35.8452 171.314M15.813 257.047L20.9982 247.519L25.2396 240.598L29.4413 234.333L33.7973 228.379L38.4783 222.486L43.687 216.395L49.7484 209.758L58.6061 200.771M503.588 505.307L505.17 503.7L511.24 497.523L517.457 490.797L523.555 483.828M523.555 483.828L528.769 477.533L531.744 473.684M531.744 473.684L535.953 468.237L539.517 463.212L542.559 458.908L545.752 454.09L548.163 450.291L550.614 446.336L552.329 443.374L554.354 439.794L557.018 434.802L559.771 429.299L562.442 423.637L563.932 420.46M567.798 406.88L566.487 412.88L565.259 416.957L563.932 420.46M567.798 406.88L571.481 399.933L573.666 394.988L575.286 390.565M567.798 406.88L568.569 400.263L568.791 395.184L568.711 390.396L568.342 385.656L567.667 380.775L566.641 375.532L565.164 369.603L562.569 361.206M567.798 406.88L572.704 393.28L575.938 383.186L578.607 373.871L580.881 364.825L582.85 355.665L584.583 345.982L586.138 335.197L587.679 320.145M563.932 420.46L566.444 414.796L568.557 409.64L570.127 405.621L571.791 401.012L573.491 396.115L575.286 390.565M575.286 390.565L577.156 384.471L578.996 378.105L579.912 374.9L581.321 369.595L582.254 365.703L583.088 361.92L584.098 356.632L584.806 352.866L585.907 346.204L586.825 339.627L587.47 334.355M587.47 334.355L588.207 327.814L588.632 322.162L589.087 315.777L589.37 308.464M587.47 334.355L587.817 328.449L587.679 320.145M562.569 361.206L568.669 354.509L572.664 349.608L575.96 345.142L578.779 340.84L581.251 336.515L583.47 331.979L585.518 326.985L587.679 320.145M562.569 361.206L559.223 352.572L556.402 346.203L553.549 340.368L550.525 334.733L547.215 329.052L543.479 323.1L539.102 316.553L532.737 307.662M562.569 361.206L565.696 345.894L567.522 334.595L568.839 324.227L569.764 314.229L570.356 304.189L570.627 293.692L570.549 282.152L569.824 266.359M587.679 320.145L588.927 313.373L589.37 308.464M587.679 320.145L588.383 304.693L588.46 293.281L588.195 282.85L587.611 272.838L586.695 262.86L585.403 252.525L583.632 241.295L580.641 226.204M587.679 320.145L586.653 311.556L585.444 305.161L583.999 299.266L582.275 293.561L580.215 287.822L577.725 281.825L574.63 275.258L569.824 266.359M589.37 308.464L589.484 300.211L589.53 296.647L589.465 289.133L589.215 281.815L588.79 274.846L588.185 268.069L587.372 261.215L586.854 257.403L585.659 249.208L584.365 241.742L583.066 235.169M583.066 235.169L581.707 228.598L579.731 220.498M583.066 235.169L580.641 226.202M580.641 226.204L577.31 217.317L574.415 210.904L571.437 205.141L568.244 199.695L564.717 194.342L560.696 188.847L555.911 182.899L548.749 174.901M580.641 226.204L580.713 232.258L580.328 236.847L579.648 241.143L578.668 245.368L577.363 249.685L575.665 254.263L573.442 259.351L569.824 266.361M569.824 266.359L565.421 273.312L561.801 278.375L558.2 282.976L554.445 287.379L550.393 291.768L545.859 296.3L540.553 301.197L532.737 307.662M579.731 220.498L578.646 216.521L576.469 208.706L573.996 200.742L571.344 193.028L568.53 185.624L565.553 178.506L562.416 171.635L560.968 168.491L556.979 160.422L553.142 153.197L548.348 144.794M579.731 220.498L580.641 226.202M580.641 226.202L576.894 211.677L573.768 201.358L570.634 192.164L567.347 183.53L563.783 175.067L559.795 166.427L555.142 157.146L548.348 144.794M548.348 144.794L546.355 141.452L541.343 133.564L536.091 125.944L535.268 124.759M548.348 144.794L542.575 136.332L537.917 130.201L533.361 124.703L528.686 119.54L523.705 114.515L518.182 109.425L511.747 103.992L502.297 96.8143M548.348 144.794L549.889 148.684L550.715 151.786L551.213 154.798L551.424 157.868L551.356 161.122L550.987 164.707L550.265 168.862L548.749 174.901M548.348 144.794L540.968 133.033L535.268 124.759M535.268 124.759L529.849 117.464L528.269 115.45L523.063 108.959L521.633 107.292L516.636 101.504L511.23 95.6543L505.437 89.7502L499.432 83.9402L493.404 78.3889L487.477 73.2242L484.945 71.1072L478.822 66.1337L475.368 63.5257L469.253 58.9461M502.297 96.8143L502.45 92.8081L502.25 90.2662L501.844 88.233L501.245 86.5511L500.445 85.1354L499.432 83.9387M502.297 96.8143L491.93 90.0133L483.936 85.2824L476.374 81.1807L468.873 77.4774L461.152 74.0225L452.894 70.6897L443.641 67.3231L430.733 63.2213M502.297 96.8143L501.546 101.592L500.674 105.453L499.632 109.23L498.384 113.09L496.883 117.177L495.063 121.661L492.804 126.814L489.313 134.216M502.297 96.8143L492.554 85.7705L485.167 78.0787L478.248 71.3674L471.427 65.2252L464.433 59.3843L456.983 53.6154L448.656 47.6392L437.031 40.0606M502.297 96.8143L511.461 108.528L517.82 117.389L523.35 125.676L528.385 133.825L533.145 142.167L537.822 151.054L542.653 160.998L548.749 174.901M548.749 174.901L546.534 181.324L544.554 186.171L542.478 190.695L540.209 195.15L537.666 199.722L534.74 204.597L531.258 210.042L526.117 217.574M548.749 174.901L540.742 167.243L534.455 161.871L528.408 157.149L522.296 152.787L515.875 148.586L508.867 144.377L500.837 139.947L489.313 134.216M548.749 174.901L554.058 189.22L557.507 199.891L560.322 209.758L562.701 219.356L564.761 229.072L566.574 239.314L568.202 250.67L569.824 266.361M469.253 58.9461L465.69 56.4469L459.479 52.1849L456.593 50.3531L450.264 46.3764L443.327 42.3188L435.917 38.2464M469.253 58.9461L462.903 54.593L456.03 50.2855L448.202 45.7971L437.031 40.0577M430.733 63.2213L432.871 57.6642L434.178 54.0197L435.176 51.0118L435.952 48.4346L436.54 46.1661L436.946 44.1109L437.15 42.1762L437.031 40.0577M430.733 63.2213L441.255 73.3595L448.81 81.2174L455.563 88.677L461.886 96.1056L468.035 103.786L474.239 112.019L480.804 121.273L489.313 134.216M430.733 63.2213L418.503 60.0929L417.631 59.8709L407.964 57.8156L399.077 56.2278L390.464 54.9782L381.755 53.9932L372.574 53.2126L362.387 52.5951L348.25 52.0673M430.733 63.2213L420.051 54.052L412.18 47.8524L404.953 42.5672L397.949 37.8333L390.864 33.4273L383.389 29.1639L375.078 24.8328L363.616 19.5432L363.477 19.48M430.733 63.2213L428.063 69.518L425.866 74.4989L423.684 79.318L421.418 84.2136L418.978 89.3768L416.239 95.0207L413.006 101.475L408.206 110.735M489.313 134.216L497.034 147.396L502.275 157.143L506.756 166.117L510.774 174.831L514.516 183.652L518.123 192.956L521.752 203.277L526.117 217.574M489.313 134.216L485.318 142.036L482.13 147.961L479.025 153.522L475.855 159.024L472.499 164.7L464.667 177.74L458.823 187.659M489.313 134.216L477.122 129.049L467.903 125.562L459.284 122.602L450.81 119.987L442.14 117.595L432.913 115.359L422.602 113.198L408.206 110.735M526.117 217.574L520.681 224.952L516.556 230.271L512.665 235.088L508.773 239.701L504.716 244.325L500.361 249.108L495.549 254.228L489.447 260.523M526.117 217.574L516.559 211.067L509.176 206.706L502.162 203.015L495.165 199.723L487.919 196.67L480.116 193.766L471.296 190.923L458.823 187.659M526.117 217.574L534.927 224.866L540.996 230.452L546.243 235.68L550.996 240.808L555.458 246.026L559.808 251.556L564.261 257.732L569.824 266.361M526.117 217.574L529.421 232.106L531.288 242.849L532.593 252.71L533.472 262.228L533.995 271.783L534.152 281.76L533.879 292.712L532.737 307.662M435.917 38.2464L428.222 34.255L420.51 30.5002L413.015 27.1262L410.661 26.1015L402.715 22.8613L399.469 21.6264M435.917 38.2464L436.479 38.7536L437.031 40.0577M437.031 40.0577L425.014 33.3038L416.007 28.7787L407.637 24.9681L399.469 21.6279L391.177 18.6082L388.162 17.5967L379.582 14.8373L370.307 12.2042L360.507 9.75643M437.031 40.0577L425.429 34.9768L416.812 31.6587L408.869 28.9404L401.149 26.6367L393.322 24.6329L385.07 22.8466L375.947 21.2089L363.477 19.48M360.507 9.75643L351.042 7.70263L342.357 6.12957L338.252 5.48417L330.213 4.34922M360.507 9.75643L361.345 10.046L362.017 10.6326L362.568 11.5103L363.021 12.6982L363.367 14.2419L363.577 16.2501L363.477 19.4785M363.477 19.48L362.545 23.3509L361.441 26.5352L360.144 29.7078L358.65 33.0186L356.932 36.5955L354.884 40.5943L352.323 45.2546L348.25 52.0673M363.477 19.48L351.438 18.4377L342.846 18.026L335.14 17.9113L327.821 18.0642L320.551 18.4759L313.098 19.158L305.177 20.1313L295.518 21.6323M363.477 19.48L351.644 15.0842L351.414 14.999L342.376 12.1866L333.999 9.97107L325.853 8.1819L317.626 6.72498L308.967 5.56062L299.378 4.66971L286.116 4.09929L287.766 5.76644L288.948 7.28952L290.011 8.91403L291.022 10.7179L292.029 12.7761L293.065 15.1475L294.168 17.9231L295.518 21.6323M330.213 4.34922L325.401 3.78615L318.12 3.07754L313.855 2.72911L306.954 2.35129L304.056 2.26749L297.219 2.15723L289.794 2.24544L282.056 2.52182M330.213 4.34922L322.504 3.59062L314.791 3.15546L306.766 3.03197L297.992 3.2422L286.116 4.09782M282.056 2.52182L274.259 2.96728L266.676 3.57445L259.578 4.33452L253.216 5.20779L247.6 6.18544L243.471 6.91316L236.597 8.36861L231.478 9.52414L223.166 11.6073L217.703 13.1466M282.056 2.52182L283.174 2.60121L284.415 3.01873L286.116 4.09782M286.116 4.09782L272.636 4.41979L262.747 5.07841L253.733 5.99432L245.099 7.19102L236.487 8.71409L227.528 10.6459L219.611 12.66L219.598 12.6644L217.703 13.1466M286.116 4.09782L274.627 5.81937L266.419 7.53944L259.076 9.45358L252.154 11.622L245.358 14.1154L238.432 17.0557L231.04 20.6502L221.327 26.178M217.703 13.1466L204.257 17.2101M221.327 26.178L234.524 23.9419L243.926 22.6805L252.35 21.8058L260.341 21.2383L268.271 20.9369L276.394 20.884L285.016 21.0795L295.518 21.6323M221.327 26.178L212.225 32.5408L205.786 37.5981L200.039 42.5202L194.63 47.5554L189.313 52.9141L183.855 58.8535L177.945 65.7706L177.769 65.997L169.977 75.9293M204.257 17.2101L192.907 21.5147L184.77 25.096L177.485 28.6831L170.634 32.4452L163.929 36.519L157.112 41.0868L149.835 46.4322L140.23 54.2917M204.257 17.2101L206.365 16.9704L208.045 17.2218L209.685 17.7658L211.368 18.5964L213.173 19.727L215.201 21.2015L217.615 23.1127L221.327 26.1765M204.257 17.2101L190.8 22.1939L185.487 24.2962L177.191 27.7952L172.366 30.0004L165.576 33.1377L158.645 36.6366L156.381 37.8039L150.43 41.0647L143.985 44.8386L137.291 48.9859L130.614 53.3258M140.23 54.2917L137.144 53.0964L135.095 52.6554L133.381 52.576L131.903 52.8053L130.614 53.3258M140.23 54.2917L127.843 61.2308L119.148 66.5718L111.508 71.635L104.444 76.6982L97.6327 81.9702L90.8009 87.6626L83.6089 94.0842L83.4031 94.2827L74.3235 103.052M140.23 54.2917L153.079 47.9862L162.607 43.7669L171.38 40.2282L179.896 37.1321L188.523 34.33L197.609 31.7102L207.638 29.155L221.327 26.1765M140.23 54.2917L131.065 62.9582L124.545 69.7238L118.745 76.2072L113.343 82.7273L108.124 89.54L102.883 96.9407L97.346 105.379L90.1437 117.429M140.23 54.2917L143.832 56.2646L146.797 58.0655L149.745 59.9797L152.799 62.0952L156.058 64.5004L159.67 67.3128L163.863 70.7265L169.977 75.9293M221.327 26.1765L225.884 29.8078L229.643 32.7775L233.361 35.7251L237.175 38.7978L241.207 42.1159L250.833 50.1253L258.433 56.3984M130.614 53.3258L124.197 57.6818L122.572 58.8374L116.217 63.3757L110.473 67.7612L107.558 70.1678L102.015 74.7517L98.625 77.7479L93.2046 82.6361M74.3235 103.052L81.9697 94.1386L87.7562 87.9875L93.2046 82.6361M74.3235 103.052L73.0738 103.267L72.2873 103.943M74.3235 103.052L66.0112 111.955L60.4276 118.431L55.679 124.335L51.4318 130.05L47.4727 135.828M74.3235 103.052L67.0036 112.762L61.8434 120.279L57.3006 127.417L53.1254 134.525L49.1457 141.87L45.2057 149.768L41.101 158.691L35.8452 171.314M74.3235 103.052L75.773 103.868L77.0182 104.881L78.3355 106.078L79.813 107.483L81.5287 109.134L86.1317 113.574L90.1452 117.43M90.1437 117.429L79.3117 125.735L71.8815 131.954L65.4585 137.731L59.6205 143.389L54.0927 149.159L48.6473 155.266L43.0049 162.033L35.8452 171.314M90.1437 117.429L94.8835 121.996L98.7147 125.675L102.474 129.259L106.34 132.914L110.457 136.768L114.995 140.988L127.703 152.756M90.1437 117.429L101.906 109.421L110.923 103.777L119.414 98.8254L127.8 94.29L136.401 89.9869L145.561 85.7573L155.786 81.3983L169.977 75.9293M90.1437 117.429L83.5045 130.11L78.9824 139.659L75.1159 148.555L71.6684 157.268L68.4826 166.157L65.4276 175.589L62.3506 186.111L58.6061 200.771M169.977 75.9293L162.215 87.0613L156.68 95.6425L151.762 103.761L147.184 111.817L142.759 120.112L138.323 128.977L133.669 138.912L127.703 152.756M169.977 75.9293L176.619 81.8246L181.709 86.4894L186.512 91.0057L191.274 95.5911L196.189 100.428L201.481 105.715L207.481 111.752L216.002 120.406M169.977 75.9293L184.273 71.2116L194.77 68.1566L204.377 65.6588L213.65 63.5345L222.985 61.6674L232.775 59.965L243.574 58.3272L258.433 56.3984M258.433 56.3984L273.351 54.7783L284.278 53.7786L294.233 53.0244L303.765 52.4731L313.264 52.1085L323.104 51.91L333.808 51.8659L348.25 52.0673M258.433 56.3984L265.146 48.6492L269.899 43.5037L274.133 39.1741L278.133 35.3517L282.082 31.841L286.11 28.5185L290.365 25.2636L295.518 21.6323M93.2046 82.6361L90.0585 85.5853L84.6645 90.8513L82.5122 93.0771L77.4034 98.3785L72.2873 103.943M72.2873 103.943L67.3153 109.571L62.6505 115.096L58.4164 120.406L57.2521 121.964L53.1004 127.559L49.303 133.105L47.4727 135.828M47.4727 135.828L43.6635 141.854L42.0316 144.531L38.2769 150.944L34.4883 157.865M35.8452 171.314L34.4589 167.881L33.787 165.622L33.4283 163.738L33.3298 162.095L33.4739 160.604L33.8561 159.21L34.4883 157.865M35.8452 171.314L29.5545 180.447L25.4204 187.049L22.0008 193.022L19.0576 198.722L16.4452 204.4L14.0826 210.263L11.8862 216.598L9.54869 225.044M35.8452 171.314L37.9152 175.247L39.8014 178.347L41.8111 181.333L44.034 184.353L46.5582 187.527L49.5132 191.001L53.1092 195L58.6061 200.771M34.4883 157.865L30.7424 165.15L27.2669 172.374L24.1179 179.438L21.2599 186.458L18.6386 193.585L16.1746 201.052L15.5763 202.958L12.8962 212.036L9.54869 225.044M58.6061 200.771L64.8013 206.855L69.6528 211.417L74.3132 215.654L79.0294 219.804L83.9941 224.044L89.4087 228.544L95.5789 233.55L104.294 240.438M532.737 307.662L526.122 299.144L521.156 293.103L516.511 287.712L511.907 282.625L507.14 277.603L502.062 272.485L496.483 267.078L489.447 260.523M158.075 278.951L168.035 277.815L176.371 276.899L184.374 276.047L192.338 275.232L200.524 274.426L209.317 273.592L219.307 272.681L233.619 271.428M158.075 278.951L160.542 268.069L162.703 259.147L164.864 250.745L167.108 242.556L169.507 234.317L172.181 225.646L175.318 215.986L179.965 202.453M158.075 278.951L149.792 273.384L143.137 268.839L136.999 264.579L131.146 260.443L125.395 256.3L119.485 251.961L113.056 247.146L104.294 240.438M233.619 271.428L225.125 258.875L218.763 249.974L212.885 242.064L207.206 234.666L201.516 227.453L195.57 220.164L189.011 212.456L179.965 202.453M233.619 271.428L239.962 257.219L244.505 246.79L248.63 237.284L252.604 228.188L256.619 219.128L260.856 209.719L265.577 199.42L272.169 185.364M233.619 271.428L248.86 270.17L260.258 269.272L270.765 268.478L280.925 267.743L291.147 267.041L301.873 266.34L313.737 265.604L330.088 264.654M179.965 202.453L170.786 193.234L164.128 186.804L158.148 181.136L152.53 175.867L147.053 170.757L127.703 152.756M179.965 202.453L185.13 188.459L189.111 178.231L192.875 168.99L196.613 160.241L200.473 151.633L204.63 142.798L209.338 133.239L216.002 120.406M179.965 202.453L166.183 207.15L156.392 211.02L147.691 214.842L139.564 218.76L131.67 222.894L123.703 227.444L115.273 232.721L104.294 240.438M179.965 202.453L194.264 198.64L204.936 196.171L214.814 194.107L224.433 192.284L234.195 190.602L244.529 188.987L256.057 187.358L272.169 185.364M104.294 240.438L106.606 225.571L108.721 214.794L110.926 205.048L113.293 195.779L115.901 186.599L118.87 177.112L122.405 166.779L127.703 152.756M272.169 185.364L262.517 173.386L255.54 164.904L249.255 157.392L243.304 150.404L237.432 143.641L231.39 136.846L224.834 129.69L216.133 120.544L216.002 120.406M272.169 185.364L278.92 171.368L283.906 161.27L288.474 152.217L292.87 143.716L297.269 135.425L301.838 127.033L306.807 118.12L313.474 106.482M272.169 185.364L288.734 183.731L300.969 182.718L312.155 181.93L322.885 181.304L333.57 180.804L344.625 180.422L356.626 180.158L372.724 180.073M272.169 185.364L281.847 197.806L288.921 207.078L295.356 215.642L301.514 223.96L307.646 232.372L313.984 241.236L320.853 251.064L330.088 264.654M330.088 264.654L337.28 250.161L342.539 239.677L347.324 230.219L372.724 180.073M330.088 264.654L346.323 263.798L357.976 263.228L368.414 262.754L378.265 262.344L387.965 261.977L397.9 261.636L408.581 261.308L422.711 260.934M127.703 152.756L141.302 146.199L151.505 141.677L160.977 137.762L170.227 134.215L179.632 130.882L189.583 127.654L200.646 124.39L216.002 120.406M127.703 152.756L114.7 159.828L105.555 165.211L97.5048 170.264L90.0644 175.25L82.9135 180.375L75.7686 185.861L68.2753 192.049L58.6046 200.773M216.002 120.406L222.861 108.124L227.916 99.5546L232.542 92.0657L237.01 85.1854L241.515 78.5932L246.232 72.0305L251.413 65.1722L258.433 56.3954L266.781 63.1537L273.135 68.383L279.062 73.3962L284.853 78.4668L290.725 83.8181L296.931 89.7105L303.842 96.529L313.474 106.482M216.002 120.406L231.64 116.996L243.207 114.74L253.835 112.862L264.104 111.26L274.431 109.874L285.246 108.656L297.155 107.565L313.474 106.482M313.474 106.482L323.354 117.285L330.634 125.573L337.27 133.386L343.606 141.116L349.887 149.053L356.358 157.514L363.359 166.962L372.724 180.073M313.474 106.482L329.706 105.939L341.463 105.844L352.076 105.987L362.146 106.35L372.101 106.935L382.334 107.76L393.39 108.872L408.206 110.735M313.474 106.482L319.856 95.7352L324.377 88.355L328.392 81.9672L332.145 76.1498L335.798 70.6265L339.48 65.1575L343.348 59.446L348.25 52.0673M372.724 180.073L388.187 180.4L399.146 180.839L408.89 181.389L418.019 182.067L426.949 182.9L436.049 183.95L445.817 185.322L458.241 187.556L458.823 187.659M372.724 180.073L381.695 193.255L388.034 202.921L393.658 211.759L398.915 220.279L404.051 228.835L409.301 237.778L422.711 260.934M372.724 180.073L395.369 135.563L399.063 128.311L403.006 120.666L408.206 110.735M422.711 260.934L435.332 260.674L435.792 260.665L444.823 260.517L452.696 260.423L459.948 260.367L466.924 260.349L473.859 260.365L481.006 260.418L489.447 260.523M422.711 260.934L428.688 247.669L433.112 238.241L437.153 229.852L441.005 221.996L444.804 214.332L448.722 206.577L452.993 198.359L458.823 187.659M489.447 260.523L485.999 250.092L482.978 241.549L479.954 233.522L476.818 225.711L473.462 217.869L469.72 209.632L465.33 200.47L458.823 187.659M489.447 260.523L487.507 270.93L485.723 279.529L483.867 287.682L481.869 295.692L479.658 303.811L477.122 312.426L474.078 322.097L469.451 335.765M458.823 187.659L451.584 174.448L446.002 164.81L440.72 156.119L435.473 147.906L430.05 139.843L424.207 131.586L417.587 122.67L408.206 110.735M408.206 110.735L398.54 99.3561L391.413 91.4394L384.881 84.5444L378.569 78.2272L372.202 72.1995L365.529 66.219L358.198 59.9929L348.25 52.0673M348.25 52.0673L338.725 45.1194L331.979 40.5355L325.96 36.7043L320.275 33.3494L314.656 30.2959L308.923 27.4394L302.864 24.6726L295.518 21.6323" stroke="url(#paint0_radial_6366_25)" stroke-opacity="0.5" stroke-width="2" stroke-linecap="round" stroke-linejoin="round"/>
<g filter="url(#filter0_f_6366_25)">
<path d="M407.966 121.239C413.649 121.239 418.257 116.632 418.257 110.948C418.257 105.265 413.649 100.657 407.966 100.657C402.282 100.657 397.675 105.265 397.675 110.948C397.675 116.632 402.282 121.239 407.966 121.239Z" fill="#8566FF"/>
</g>
<path d="M407.966 117.564C411.62 117.564 414.582 114.602 414.582 110.949C414.582 107.295 411.62 104.333 407.966 104.333C404.313 104.333 401.351 107.295 401.351 110.949C401.351 114.602 404.313 117.564 407.966 117.564Z" fill="white" fill-opacity="0.32"/>
<path d="M407.967 115.359C410.402 115.359 412.377 113.384 412.377 110.949C412.377 108.513 410.402 106.538 407.967 106.538C405.531 106.538 403.556 108.513 403.556 110.949C403.556 113.384 405.531 115.359 407.967 115.359Z" fill="white" fill-opacity="0.4"/>
<g filter="url(#filter1_f_6366_25)">
<path d="M180.093 213.124C185.776 213.124 190.384 208.517 190.384 202.833C190.384 197.149 185.776 192.542 180.093 192.542C174.409 192.542 169.802 197.149 169.802 202.833C169.802 208.517 174.409 213.124 180.093 213.124Z" fill="#8566FF"/>
</g>
<path d="M180.093 209.449C183.747 209.449 186.709 206.487 186.709 202.833C186.709 199.18 183.747 196.218 180.093 196.218C176.439 196.218 173.478 199.18 173.478 202.833C173.478 206.487 176.439 209.449 180.093 209.449Z" fill="white" fill-opacity="0.32"/>
<path d="M180.093 207.244C182.529 207.244 184.504 205.269 184.504 202.833C184.504 200.397 182.529 198.423 180.093 198.423C177.657 198.423 175.683 200.397 175.683 202.833C175.683 205.269 177.657 207.244 180.093 207.244Z" fill="white" fill-opacity="0.4"/>
<path d="M574.093 203.568C529.254 146.233 481.474 123.445 407.231 110.214" stroke="url(#paint1_linear_6366_25)" stroke-width="2"/>
<path d="M5.88037 371.9C30.1378 301.333 105.851 220.475 180.093 202.833" stroke="url(#paint2_linear_6366_25)" stroke-width="2"/>
<g filter="url(#filter2_f_6366_25)">
<path d="M422.668 271.195C428.352 271.195 432.959 266.588 432.959 260.904C432.959 255.221 428.352 250.613 422.668 250.613C416.984 250.613 412.377 255.221 412.377 260.904C412.377 266.588 416.984 271.195 422.668 271.195Z" fill="#8566FF"/>
</g>
<path d="M422.668 267.519C426.322 267.519 429.284 264.557 429.284 260.904C429.284 257.25 426.322 254.288 422.668 254.288C419.014 254.288 416.052 257.25 416.052 260.904C416.052 264.557 419.014 267.519 422.668 267.519Z" fill="white" fill-opacity="0.32"/>
<path d="M422.668 265.314C425.104 265.314 427.078 263.339 427.078 260.904C427.078 258.468 425.104 256.493 422.668 256.493C420.232 256.493 418.257 258.468 418.257 260.904C418.257 263.339 420.232 265.314 422.668 265.314Z" fill="white" fill-opacity="0.4"/>
<g filter="url(#filter3_f_6366_25)">
<path d="M257.277 66.8438C262.96 66.8438 267.568 62.2364 267.568 56.5528C267.568 50.8692 262.96 46.2617 257.277 46.2617C251.593 46.2617 246.986 50.8692 246.986 56.5528C246.986 62.2364 251.593 66.8438 257.277 66.8438Z" fill="#8566FF"/>
</g>
<path d="M257.276 63.1688C260.93 63.1688 263.892 60.2069 263.892 56.5532C263.892 52.8994 260.93 49.9375 257.276 49.9375C253.623 49.9375 250.661 52.8994 250.661 56.5532C250.661 60.2069 253.623 63.1688 257.276 63.1688Z" fill="white" fill-opacity="0.32"/>
<path d="M257.276 60.9635C259.712 60.9635 261.687 58.9888 261.687 56.553C261.687 54.1172 259.712 52.1426 257.276 52.1426C254.84 52.1426 252.866 54.1172 252.866 56.553C252.866 58.9888 254.84 60.9635 257.276 60.9635Z" fill="white" fill-opacity="0.4"/>
<path d="M422.668 260.904C377.829 180.046 324.903 107.274 257.276 55.8184" stroke="url(#paint3_linear_6366_25)" stroke-width="2"/>
</g>
<defs>
<filter id="filter0_f_6366_25" x="388.854" y="91.8361" width="38.2238" height="38.2238" filterUnits="userSpaceOnUse" color-interpolation-filters="sRGB">
<feFlood flood-opacity="0" result="BackgroundImageFix"/>
<feBlend mode="normal" in="SourceGraphic" in2="BackgroundImageFix" result="shape"/>
<feGaussianBlur stdDeviation="4.41045" result="effect1_foregroundBlur_6366_25"/>
</filter>
<filter id="filter1_f_6366_25" x="160.981" y="183.721" width="38.2238" height="38.2238" filterUnits="userSpaceOnUse" color-interpolation-filters="sRGB">
<feFlood flood-opacity="0" result="BackgroundImageFix"/>
<feBlend mode="normal" in="SourceGraphic" in2="BackgroundImageFix" result="shape"/>
<feGaussianBlur stdDeviation="4.41045" result="effect1_foregroundBlur_6366_25"/>
</filter>
<filter id="filter2_f_6366_25" x="403.556" y="241.792" width="38.2238" height="38.2238" filterUnits="userSpaceOnUse" color-interpolation-filters="sRGB">
<feFlood flood-opacity="0" result="BackgroundImageFix"/>
<feBlend mode="normal" in="SourceGraphic" in2="BackgroundImageFix" result="shape"/>
<feGaussianBlur stdDeviation="4.41045" result="effect1_foregroundBlur_6366_25"/>
</filter>
<filter id="filter3_f_6366_25" x="238.165" y="37.4408" width="38.2238" height="38.224" filterUnits="userSpaceOnUse" color-interpolation-filters="sRGB">
<feFlood flood-opacity="0" result="BackgroundImageFix"/>
<feBlend mode="normal" in="SourceGraphic" in2="BackgroundImageFix" result="shape"/>
<feGaussianBlur stdDeviation="4.41045" result="effect1_foregroundBlur_6366_25"/>
</filter>
<radialGradient id="paint0_radial_6366_25" cx="0" cy="0" r="1" gradientUnits="userSpaceOnUse" gradientTransform="translate(295.5 41.8512) rotate(90) scale(484.414 484.008)">
<stop stop-color="#CB8FFF"/>
<stop offset="0.772" stop-color="#7096FF" stop-opacity="0"/>
</radialGradient>
<linearGradient id="paint1_linear_6366_25" x1="724.049" y1="397.628" x2="410.172" y2="112.368" gradientUnits="userSpaceOnUse">
<stop offset="0.305" stop-color="#BAB3FF" stop-opacity="0"/>
<stop offset="0.639" stop-color="#BAB3FF" stop-opacity="0"/>
<stop offset="0.97" stop-color="#BAB3FF"/>
<stop offset="1" stop-color="#BAB3FF" stop-opacity="0"/>
</linearGradient>
<linearGradient id="paint2_linear_6366_25" x1="-130.845" y1="489.512" x2="183.032" y2="204.25" gradientUnits="userSpaceOnUse">
<stop offset="0.305" stop-color="#BAB3FF" stop-opacity="0"/>
<stop offset="0.639" stop-color="#BAB3FF" stop-opacity="0"/>
<stop offset="0.97" stop-color="#BAB3FF"/>
<stop offset="1" stop-color="#BAB3FF" stop-opacity="0"/>
</linearGradient>
<linearGradient id="paint3_linear_6366_25" x1="423.403" y1="260.904" x2="257.276" y2="56.5533" gradientUnits="userSpaceOnUse">
<stop offset="0.022" stop-color="#BAB3FF" stop-opacity="0"/>
<stop offset="0.502" stop-color="#BAB3FF"/>
<stop offset="1" stop-color="#BAB3FF" stop-opacity="0"/>
</linearGradient>
<clipPath id="clip0_6366_25">
<rect width="592" height="427" fill="white" transform="translate(-1)"/>
</clipPath>
</defs>
</svg>
