<svg width="122" height="131" viewBox="0 0 122 131" fill="none" xmlns="http://www.w3.org/2000/svg">
<g clip-path="url(#clip0_6383_27)">
<rect width="122" height="131" fill="#030216"/>
<g opacity="0.6">
<path d="M74.8713 12.0652L100.565 26.8994C109.073 31.8118 114.315 40.8903 114.315 50.7151V80.3835C114.315 90.2083 109.073 99.2863 100.565 104.199L74.8713 119.033C66.3623 123.945 55.8803 123.945 47.3713 119.033L21.6773 104.199C13.1693 99.2863 7.92773 90.2083 7.92773 80.3835V50.7151C7.92773 40.8903 13.1693 31.8118 21.6773 26.8994L47.3713 12.0652C55.8803 7.15275 66.3623 7.15275 74.8713 12.0652Z" stroke="#BAB3FF" stroke-opacity="0.06"/>
<path d="M74.8713 12.0652L100.565 26.8994C109.073 31.8118 114.315 40.8903 114.315 50.7151V80.3835C114.315 90.2083 109.073 99.2863 100.565 104.199L74.8713 119.033C66.3623 123.945 55.8803 123.945 47.3713 119.033L21.6773 104.199C13.1693 99.2863 7.92773 90.2083 7.92773 80.3835V50.7151C7.92773 40.8903 13.1693 31.8118 21.6773 26.8994L47.3713 12.0652C55.8803 7.15275 66.3623 7.15275 74.8713 12.0652Z" stroke="url(#paint0_linear_6383_27)" stroke-opacity="0.24"/>
</g>
<g opacity="0.3">
<path d="M76.8718 5.22018L105.494 21.745C115.24 27.3719 121.244 37.7709 121.244 49.0248V82.0744C121.244 93.3286 115.24 103.728 105.494 109.355L76.8718 125.879C67.1258 131.506 55.1178 131.506 45.3718 125.879L16.7498 109.355C7.0039 103.728 1 93.3286 1 82.0744V49.0248C1 37.7709 7.0039 27.3719 16.7498 21.745L45.3718 5.22018C55.1178 -0.406726 67.1258 -0.406726 76.8718 5.22018Z" stroke="#BAB3FF" stroke-opacity="0.06"/>
<path d="M76.8718 5.22018L105.494 21.745C115.24 27.3719 121.244 37.7709 121.244 49.0248V82.0744C121.244 93.3286 115.24 103.728 105.494 109.355L76.8718 125.879C67.1258 131.506 55.1178 131.506 45.3718 125.879L16.7498 109.355C7.0039 103.728 1 93.3286 1 82.0744V49.0248C1 37.7709 7.0039 27.3719 16.7498 21.745L45.3718 5.22018C55.1178 -0.406726 67.1258 -0.406726 76.8718 5.22018Z" stroke="url(#paint1_linear_6383_27)" stroke-opacity="0.24"/>
</g>
<path d="M72.8705 18.9111L95.6355 32.0547C102.906 36.2526 107.385 44.0106 107.385 52.4063V78.6935C107.385 87.0889 102.906 94.8469 95.6355 99.0449L72.8705 112.189C65.5995 116.387 56.6415 116.387 49.3705 112.189L26.6055 99.0449C19.3345 94.8469 14.8555 87.0889 14.8555 78.6935V52.4063C14.8555 44.0106 19.3345 36.2526 26.6055 32.0547L49.3705 18.9111C56.6415 14.7132 65.5995 14.7132 72.8705 18.9111Z" stroke="#BAB3FF" stroke-opacity="0.06"/>
<path d="M72.8705 18.9111L95.6355 32.0547C102.906 36.2526 107.385 44.0106 107.385 52.4063V78.6935C107.385 87.0889 102.906 94.8469 95.6355 99.0449L72.8705 112.189C65.5995 116.387 56.6415 116.387 49.3705 112.189L26.6055 99.0449C19.3345 94.8469 14.8555 87.0889 14.8555 78.6935V52.4063C14.8555 44.0106 19.3345 36.2526 26.6055 32.0547L49.3705 18.9111C56.6415 14.7132 65.5995 14.7132 72.8705 18.9111Z" stroke="url(#paint2_linear_6383_27)" stroke-opacity="0.24"/>
</g>
<defs>
<linearGradient id="paint0_linear_6383_27" x1="-0.878661" y1="3.54925" x2="124.272" y2="126.376" gradientUnits="userSpaceOnUse">
<stop stop-color="#CDB4FF" stop-opacity="0"/>
<stop offset="0.0484288" stop-color="#CDB4FF" stop-opacity="0"/>
<stop offset="0.503168" stop-color="#CDB4FF"/>
<stop offset="0.953413" stop-color="#CDB4FF" stop-opacity="0"/>
<stop offset="1" stop-color="#CDB4FF" stop-opacity="0"/>
</linearGradient>
<linearGradient id="paint1_linear_6383_27" x1="-8.8782" y1="-4.45043" x2="132.421" y2="134.226" gradientUnits="userSpaceOnUse">
<stop stop-color="#CDB4FF" stop-opacity="0"/>
<stop offset="0.0484288" stop-color="#CDB4FF" stop-opacity="0"/>
<stop offset="0.503168" stop-color="#CDB4FF"/>
<stop offset="0.953413" stop-color="#CDB4FF" stop-opacity="0"/>
<stop offset="1" stop-color="#CDB4FF" stop-opacity="0"/>
</linearGradient>
<linearGradient id="paint2_linear_6383_27" x1="7.12047" y1="11.5499" x2="116.122" y2="118.529" gradientUnits="userSpaceOnUse">
<stop stop-color="#CDB4FF" stop-opacity="0"/>
<stop offset="0.0484288" stop-color="#CDB4FF" stop-opacity="0"/>
<stop offset="0.503168" stop-color="#CDB4FF"/>
<stop offset="0.953413" stop-color="#CDB4FF" stop-opacity="0"/>
<stop offset="1" stop-color="#CDB4FF" stop-opacity="0"/>
</linearGradient>
<clipPath id="clip0_6383_27">
<rect width="122" height="131" fill="white"/>
</clipPath>
</defs>
</svg>
