<svg viewBox="0 0 62 63" fill="none" xmlns="http://www.w3.org/2000/svg">
                        <path d="M54.25 34.0833V53.2878C54.25 53.8082 54.1451 54.3232 53.9417 54.8022C53.7383 55.2812 53.4406 55.7143 53.0661 56.0757C52.6917 56.4371 52.2483 56.7194 51.7625 56.9057C51.2766 57.0921 50.7581 57.1786 50.2381 57.1602L49.8945 57.1318L31 54.7706V34.0833H54.25ZM25.8333 34.0833V54.1248L12.276 52.4301C11.0262 52.274 9.87649 51.6666 9.04302 50.7223C8.20955 49.778 7.74973 48.5618 7.75 47.3022V34.0833H25.8333ZM49.8945 5.86815C50.4108 5.80364 50.9349 5.84379 51.4354 5.9862C51.9359 6.12861 52.4025 6.37037 52.8076 6.69705C53.2126 7.02373 53.5477 7.42863 53.7929 7.88762C54.038 8.34661 54.1882 8.85027 54.2345 9.36856L54.25 9.71215V28.9166H31V8.22931L49.8945 5.86815ZM25.8333 8.87515V28.9166H7.75V15.6977C7.74973 14.4382 8.20955 13.222 9.04302 12.2776C9.87649 11.3333 11.0262 10.726 12.276 10.5698L25.8333 8.87515Z" fill="url(#paint0_linear_6283_2)"/>
                        <defs>
                            <linearGradient id="paint0_linear_6283_2" x1="31" y1="5.83826" x2="31" y2="57.1627" gradientUnits="userSpaceOnUse">
                                <stop offset="0.0769231" stop-color="white"/>
                                <stop offset="1" stop-color="#9066FB"/>
                            </linearGradient>
                        </defs>
                    </svg>