<svg width="40" height="40" viewBox="0 0 40 40" fill="none" xmlns="http://www.w3.org/2000/svg">
<path d="M3 19.665C3 10.4612 10.4612 3 19.665 3V3C28.8688 3 36.33 10.4612 36.33 19.665V19.665C36.33 28.8688 28.8688 36.33 19.665 36.33V36.33C10.4612 36.33 3 28.8688 3 19.665V19.665Z" fill="url(#paint0_linear_6345_2)"/>
<path d="M12.4166 15.6666C14.2116 15.6666 15.6666 14.2116 15.6666 12.4166C15.6666 10.6217 14.2116 9.16663 12.4166 9.16663C10.6217 9.16663 9.16663 10.6217 9.16663 12.4166C9.16663 14.2116 10.6217 15.6666 12.4166 15.6666Z" fill="#030216"/>
<path d="M27.5834 30.8334C29.3783 30.8334 30.8334 29.3783 30.8334 27.5834C30.8334 25.7884 29.3783 24.3334 27.5834 24.3334C25.7884 24.3334 24.3334 25.7884 24.3334 27.5834C24.3334 29.3783 25.7884 30.8334 27.5834 30.8334Z" fill="#030216"/>
<path d="M15.5226 28.6458H18.5496C18.5183 28.6935 18.4908 28.7438 18.4675 28.7961C18.4094 28.9265 18.3782 29.0672 18.3757 29.2098C18.3732 29.3525 18.3994 29.4942 18.4529 29.6265C18.5063 29.7588 18.5858 29.879 18.6867 29.9799C18.7876 30.0808 18.9078 30.1603 19.0401 30.2137C19.1724 30.2672 19.3141 30.2934 19.4568 30.2909C19.5994 30.2884 19.7401 30.2572 19.8705 30.1991C19.9994 30.1416 20.1155 30.0591 20.2121 29.9564L21.8342 28.3342L21.8344 28.3341C22.0333 28.1349 22.1451 27.8649 22.1451 27.5833C22.1451 27.3017 22.0333 27.0317 21.8344 26.8325L21.8342 26.8323L20.2107 25.2088C20.1131 25.1081 19.9965 25.0277 19.8676 24.9723C19.738 24.9165 19.5986 24.8871 19.4575 24.8859C19.3164 24.8846 19.1765 24.9114 19.0459 24.9647C18.9153 25.0181 18.7966 25.0969 18.6968 25.1967C18.597 25.2964 18.5181 25.415 18.4646 25.5455C18.4111 25.6761 18.3842 25.816 18.3853 25.957C18.3865 26.0981 18.4157 26.2375 18.4713 26.3672C18.4943 26.4207 18.5215 26.472 18.5527 26.5208H15.5236C14.4198 26.5208 13.9989 25.0785 14.932 24.4846L14.932 24.4846L26.2095 17.3075C26.2095 17.3075 26.2095 17.3075 26.2095 17.3075C28.9349 15.5732 27.7067 11.3541 24.4763 11.3541H18.9166C18.6348 11.3541 18.3646 11.4661 18.1653 11.6653C17.9661 11.8646 17.8541 12.1348 17.8541 12.4166C17.8541 12.6984 17.9661 12.9687 18.1653 13.1679C18.3646 13.3672 18.6348 13.4791 18.9166 13.4791H24.4752C25.5799 13.4791 26.0002 14.9214 25.0678 15.5154L13.7893 22.6924L13.9236 22.9033L13.7893 22.6924C11.064 24.4267 12.2921 28.6458 15.5226 28.6458Z" fill="#030216" stroke="#030216" stroke-width="0.5"/>
<defs>
<linearGradient id="paint0_linear_6345_2" x1="19.665" y1="3" x2="19.665" y2="36.33" gradientUnits="userSpaceOnUse">
<stop offset="0.0769231" stop-color="white"/>
<stop offset="1" stop-color="#9066FB"/>
</linearGradient>
</defs>
</svg>
