<svg width="40" height="40" viewBox="0 0 40 40" fill="none" xmlns="http://www.w3.org/2000/svg">
<path fill-rule="evenodd" clip-rule="evenodd" d="M5.77337 5.27337C3.33337 7.71671 3.33337 11.6434 3.33337 19.5C3.33337 27.3567 3.33337 31.285 5.77337 33.725C8.21671 36.1667 12.1434 36.1667 20 36.1667C27.8567 36.1667 31.785 36.1667 34.225 33.725C36.6667 31.2867 36.6667 27.3567 36.6667 19.5C36.6667 11.6434 36.6667 7.71504 34.225 5.27337C31.7867 2.83337 27.8567 2.83337 20 2.83337C12.1434 2.83337 8.21504 2.83337 5.77337 5.27337ZM13.3834 9.45004C13.6175 9.68442 13.7489 10.0021 13.7489 10.3334C13.7489 10.6646 13.6175 10.9823 13.3834 11.2167L13.0167 11.5834H13.3334C16.1334 11.5834 18.5917 13.0367 20 15.2284C20.7165 14.1105 21.7025 13.1908 22.8675 12.5538C24.0325 11.9169 25.339 11.5831 26.6667 11.5834H26.9834L26.6167 11.2167C26.3959 10.9797 26.2757 10.6663 26.2814 10.3425C26.2871 10.0187 26.4183 9.70969 26.6473 9.48067C26.8764 9.25165 27.1853 9.12046 27.5092 9.11475C27.833 9.10904 28.1464 9.22924 28.3834 9.45004L30.8834 11.95C31.1175 12.1844 31.2489 12.5021 31.2489 12.8334C31.2489 13.1646 31.1175 13.4823 30.8834 13.7167L28.3834 16.2167C28.2689 16.3395 28.1309 16.438 27.9776 16.5063C27.8243 16.5747 27.6587 16.6114 27.4909 16.6144C27.3231 16.6173 27.1564 16.5864 27.0007 16.5236C26.8451 16.4607 26.7037 16.3671 26.585 16.2484C26.4663 16.1297 26.3727 15.9884 26.3098 15.8327C26.247 15.6771 26.2161 15.5103 26.2191 15.3425C26.222 15.1747 26.2588 15.0091 26.3271 14.8558C26.3954 14.7025 26.4939 14.5645 26.6167 14.45L26.9834 14.0834H26.6667C25.2301 14.0834 23.8524 14.6541 22.8365 15.6699C21.8207 16.6857 21.25 18.0635 21.25 19.5V29.5C21.25 29.8316 21.1183 30.1495 20.8839 30.3839C20.6495 30.6183 20.3316 30.75 20 30.75C19.6685 30.75 19.3506 30.6183 19.1162 30.3839C18.8817 30.1495 18.75 29.8316 18.75 29.5V19.5C18.75 18.0635 18.1794 16.6857 17.1635 15.6699C16.1477 14.6541 14.77 14.0834 13.3334 14.0834H13.0167L13.3834 14.45C13.5062 14.5645 13.6047 14.7025 13.673 14.8558C13.7413 15.0091 13.7781 15.1747 13.781 15.3425C13.784 15.5103 13.7531 15.6771 13.6902 15.8327C13.6274 15.9884 13.5338 16.1297 13.4151 16.2484C13.2964 16.3671 13.155 16.4607 12.9994 16.5236C12.8437 16.5864 12.677 16.6173 12.5092 16.6144C12.3413 16.6114 12.1758 16.5747 12.0225 16.5063C11.8691 16.438 11.7311 16.3395 11.6167 16.2167L9.11671 13.7167C8.88262 13.4823 8.75114 13.1646 8.75114 12.8334C8.75114 12.5021 8.88262 12.1844 9.11671 11.95L11.6167 9.45004C11.8511 9.21596 12.1688 9.08447 12.5 9.08447C12.8313 9.08447 13.149 9.21596 13.3834 9.45004Z" fill="url(#paint0_linear_6264_9)"/>
<defs>
<linearGradient id="paint0_linear_6264_9" x1="20" y1="2.83337" x2="20" y2="36.1667" gradientUnits="userSpaceOnUse">
<stop offset="0.0769231" stop-color="white"/>
<stop offset="1" stop-color="#9066FB"/>
</linearGradient>
</defs>
</svg>
