<svg width="105" height="105" viewBox="0 0 105 105" fill="none" xmlns="http://www.w3.org/2000/svg">
<g clip-path="url(#clip0_6204_2)">
<g clip-path="url(#clip1_6204_2)">
<mask id="mask0_6204_2" style="mask-type:luminance" maskUnits="userSpaceOnUse" x="0" y="-1" width="105" height="106">
<path d="M105 -0.000244141H0V105H105V-0.000244141Z" fill="white"/>
</mask>
<g mask="url(#mask0_6204_2)">
<mask id="mask1_6204_2" style="mask-type:luminance" maskUnits="userSpaceOnUse" x="0" y="0" width="105" height="106">
<path d="M105 0H0V105H105V0Z" fill="white"/>
</mask>
<g mask="url(#mask1_6204_2)">
<path d="M105 0H0V105H105V0Z" fill="#FF8533" fill-opacity="0.12"/>
<g opacity="0.4" filter="url(#filter0_f_6204_2)">
<path d="M52.5 118.125C70.6218 118.125 85.3125 112.248 85.3125 105C85.3125 97.7508 70.6218 91.8746 52.5 91.8746C34.3782 91.8746 19.6875 97.7508 19.6875 105C19.6875 112.248 34.3782 118.125 52.5 118.125Z" fill="#FF8533"/>
</g>
<g opacity="0.4" filter="url(#filter1_f_6204_2)">
<path d="M52.5 72.1875C63.3731 72.1875 72.1875 63.3731 72.1875 52.5C72.1875 41.6269 63.3731 32.8125 52.5 32.8125C41.6269 32.8125 32.8125 41.6269 32.8125 52.5C32.8125 63.3731 41.6269 72.1875 52.5 72.1875Z" fill="#FF8533"/>
</g>
<path opacity="0.45" d="M1.64062 26.2502H103.359M1.64062 78.7504H103.359M26.25 103.36V1.64087M78.75 103.36V1.64087M9.29688 9.29713L96.7969 96.7973M9.29688 95.7033L95.7031 9.29712M90.2344 53.5941C90.2344 74.4342 73.34 91.3285 52.5 91.3285C31.66 91.3285 14.7656 74.4342 14.7656 53.5941C14.7656 32.7539 31.66 15.8596 52.5 15.8596C73.34 15.8596 90.2344 32.7539 90.2344 53.5941Z" stroke="#FF8533" stroke-width="0.469838" stroke-linecap="round" stroke-linejoin="round"/>
</g>
</g>
</g>
<path fill-rule="evenodd" clip-rule="evenodd" d="M36.9271 52.4999C36.9271 48.3697 38.5678 44.4087 41.4883 41.4882C44.4088 38.5677 48.3698 36.927 52.5 36.927C56.6302 36.927 60.5913 38.5677 63.5118 41.4882C66.4322 44.4087 68.073 48.3697 68.073 52.4999C68.073 56.6301 66.4322 60.5911 63.5118 63.5116C60.5913 66.4321 56.6302 68.0728 52.5 68.0728C48.3698 68.0728 44.4088 66.4321 41.4883 63.5116C38.5678 60.5911 36.9271 56.6301 36.9271 52.4999ZM52.3484 41.0383C52.3929 41.0072 52.4457 40.9902 52.5 40.9895C52.5109 40.9895 52.5569 40.9895 52.6517 41.0383C52.8231 41.1346 52.9784 41.2571 53.1121 41.4012C53.5265 41.8291 54.0005 42.5685 54.4446 43.6789C54.8834 44.773 55.2463 46.1191 55.5009 47.6493C55.6507 48.5557 55.7573 49.4955 55.8205 50.4687H49.1796C49.2428 49.4955 49.3493 48.5566 49.4992 47.652C49.7062 46.2933 50.0604 44.961 50.5555 43.6789C50.9996 42.5685 51.4763 41.8291 51.888 41.4012C52.0217 41.2571 52.177 41.1346 52.3484 41.0383ZM45.1063 50.4687C45.174 49.2797 45.304 48.1097 45.4882 46.9858C45.7263 45.4943 46.1026 44.0282 46.6121 42.6064C45.1942 43.4502 43.9743 44.5889 43.0351 45.9454C42.0959 47.302 41.4592 48.8446 41.1684 50.4687H45.1063ZM41.1684 54.5312H45.1063C45.174 55.7201 45.304 56.8901 45.4882 58.0141C45.7263 59.5055 46.1026 60.9716 46.6121 62.3935C45.1942 61.5497 43.9743 60.4109 43.0351 59.0544C42.0959 57.6979 41.4592 56.1553 41.1684 54.5312ZM63.8263 50.4687C63.5354 48.8446 62.8988 47.302 61.9596 45.9454C61.0203 44.5889 59.8004 43.4502 58.3825 42.6064C58.87 43.9226 59.2438 45.4068 59.5065 46.9858C59.6907 48.1097 59.8207 49.2797 59.8857 50.4687H63.8263ZM59.8884 54.5312H63.8263C63.5354 56.1553 62.8988 57.6979 61.9596 59.0544C61.0203 60.4109 59.8004 61.5497 58.3825 62.3935C58.87 61.0772 59.2438 59.593 59.5065 58.0141C59.6907 56.8901 59.8234 55.7201 59.8884 54.5312ZM55.815 54.5312C55.7533 55.4746 55.6466 56.4145 55.4955 57.3478C55.2884 58.7066 54.9343 60.0388 54.4392 61.321C53.995 62.4314 53.5184 63.1708 53.1067 63.5987C52.973 63.7428 52.8177 63.8652 52.6463 63.9616C52.6018 63.9927 52.5489 64.0097 52.4946 64.0103C52.4838 64.0103 52.4377 64.0103 52.343 63.9616C52.1716 63.8652 52.0163 63.7428 51.8825 63.5987C51.4682 63.1708 50.9942 62.4314 50.55 61.321C50.0552 60.0397 49.701 58.7084 49.4938 57.3505C49.3425 56.4164 49.2359 55.4755 49.1742 54.5312H55.815Z" fill="#FF8533"/>
<path fill-rule="evenodd" clip-rule="evenodd" d="M52.5 23.3854C49.9623 23.3854 47.5356 24.2168 43.6248 25.5548L41.6558 26.2318C37.6448 27.6023 34.5465 28.6639 32.331 29.5631C31.2152 30.0154 30.2537 30.4568 29.4819 30.9037C28.7371 31.337 27.9923 31.876 27.4858 32.5991C26.9848 33.3114 26.7248 34.1889 26.5623 35.0366C26.3917 35.9141 26.2915 36.9677 26.2238 38.1783C26.0938 40.5779 26.0938 43.8712 26.0938 48.1395V52.4756C26.0938 68.9991 38.5737 76.921 45.9946 80.1656L46.0677 80.1954C46.9885 80.5989 47.8552 80.9754 48.8492 81.23C49.8973 81.5008 51.0131 81.6145 52.5 81.6145C53.9896 81.6145 55.1 81.5008 56.1508 81.23C57.1448 80.9754 58.0115 80.5989 58.9296 80.1954L59.0054 80.1656C66.4262 76.921 78.9062 68.9991 78.9062 52.4756V48.1395C78.9062 43.8712 78.9062 40.5779 78.7762 38.1756C78.7315 37.1221 78.6184 36.0727 78.4377 35.0339C78.2752 34.1889 78.0152 33.3114 77.5169 32.5964C77.0077 31.876 76.2629 31.337 75.5181 30.9037C74.5983 30.3959 73.6466 29.9481 72.669 29.5631C70.4535 28.6639 67.3552 27.6023 63.3442 26.2318L61.3752 25.5548C57.4644 24.2168 55.0377 23.3854 52.5 23.3854ZM44.5917 29.517C48.9656 28.022 50.7179 27.4479 52.5 27.4479C54.2821 27.4479 56.0344 28.022 60.4083 29.517L61.9575 30.0479C66.0552 31.4508 69.0425 32.4745 71.1387 33.325C72.1869 33.7529 72.9452 34.1104 73.4787 34.4191C73.7387 34.5708 73.9265 34.6963 74.0421 34.7956C74.145 34.8768 74.1856 34.9256 74.191 34.931C74.2266 34.9947 74.2556 35.0619 74.2777 35.1314C74.3319 35.2795 74.3887 35.5034 74.4483 35.8031C74.5981 36.6607 74.6886 37.5276 74.7192 38.3977C74.8437 40.6754 74.8437 43.855 74.8437 48.2127V52.4756C74.8437 66.4939 64.3625 73.392 57.3777 76.4416C56.3729 76.8804 55.7906 77.1295 55.1433 77.2948C54.5258 77.4545 53.7729 77.552 52.5 77.552C51.2271 77.552 50.4742 77.4545 49.8567 77.2948C49.2067 77.1323 48.6271 76.8804 47.6223 76.4416C40.6348 73.392 30.1562 66.4912 30.1562 52.4756V48.2127C30.1562 43.855 30.1562 40.6754 30.2808 38.3977C30.3114 37.5276 30.4019 36.6607 30.5517 35.8031C30.6094 35.5034 30.6663 35.2795 30.7223 35.1314C30.771 34.996 30.8035 34.9418 30.809 34.931C30.8543 34.8813 30.9042 34.836 30.9579 34.7956C31.0735 34.6963 31.2613 34.5699 31.5213 34.4164C32.0548 34.1077 32.8131 33.7529 33.8612 33.3277C35.9575 32.4745 38.9448 31.4508 43.0425 30.0506L44.5917 29.517Z" fill="#FF8533"/>
</g>
<rect x="0.25" y="0.25" width="104.5" height="104.5" rx="24.75" stroke="#FF8533" stroke-width="0.5"/>
<defs>
<filter id="filter0_f_6204_2" x="7.15848" y="79.3456" width="90.683" height="51.308" filterUnits="userSpaceOnUse" color-interpolation-filters="sRGB">
<feFlood flood-opacity="0" result="BackgroundImageFix"/>
<feBlend mode="normal" in="SourceGraphic" in2="BackgroundImageFix" result="shape"/>
<feGaussianBlur stdDeviation="6.26451" result="effect1_foregroundBlur_6204_2"/>
</filter>
<filter id="filter1_f_6204_2" x="14.019" y="14.019" width="76.962" height="76.962" filterUnits="userSpaceOnUse" color-interpolation-filters="sRGB">
<feFlood flood-opacity="0" result="BackgroundImageFix"/>
<feBlend mode="normal" in="SourceGraphic" in2="BackgroundImageFix" result="shape"/>
<feGaussianBlur stdDeviation="9.39676" result="effect1_foregroundBlur_6204_2"/>
</filter>
<clipPath id="clip0_6204_2">
<rect width="105" height="105" rx="25" fill="white"/>
</clipPath>
<clipPath id="clip1_6204_2">
<rect width="105" height="105" fill="white"/>
</clipPath>
</defs>
</svg>
