<svg width="40" height="40" viewBox="0 0 40 40" fill="none" xmlns="http://www.w3.org/2000/svg">
<path d="M16.6666 28.75C16.1141 28.75 15.5842 28.5305 15.1935 28.1398C14.8028 27.7491 14.5833 27.2192 14.5833 26.6667C14.5833 26.1141 14.8028 25.5842 15.1935 25.1935C15.5842 24.8028 16.1141 24.5833 16.6666 24.5833C17.2192 24.5833 17.7491 24.8028 18.1398 25.1935C18.5305 25.5842 18.75 26.1141 18.75 26.6667C18.75 27.2192 18.5305 27.7491 18.1398 28.1398C17.7491 28.5305 17.2192 28.75 16.6666 28.75ZM25.4166 13.3333C25.4166 13.8859 25.1972 14.4158 24.8065 14.8065C24.4158 15.1972 23.8858 15.4167 23.3333 15.4167C22.7808 15.4167 22.2509 15.1972 21.8602 14.8065C21.4695 14.4158 21.25 13.8859 21.25 13.3333C21.25 12.7808 21.4695 12.2509 21.8602 11.8602C22.2509 11.4695 22.7808 11.25 23.3333 11.25C23.8858 11.25 24.4158 11.4695 24.8065 11.8602C25.1972 12.2509 25.4166 12.7808 25.4166 13.3333Z" fill="url(#paint0_linear_6264_11)"/>
<path fill-rule="evenodd" clip-rule="evenodd" d="M3.33331 20C3.33331 12.1434 3.33331 8.21504 5.77331 5.77337C8.21665 3.33337 12.1433 3.33337 20 3.33337C27.8566 3.33337 31.785 3.33337 34.225 5.77337C36.6666 8.21671 36.6666 12.1434 36.6666 20C36.6666 27.8567 36.6666 31.785 34.225 34.225C31.7866 36.6667 27.8566 36.6667 20 36.6667C12.1433 36.6667 8.21498 36.6667 5.77331 34.225C3.33331 31.7867 3.33331 27.8567 3.33331 20ZM16.6666 31.25C15.4511 31.25 14.2853 30.7672 13.4257 29.9076C12.5662 29.0481 12.0833 27.8823 12.0833 26.6667C12.0833 25.4511 12.5662 24.2853 13.4257 23.4258C14.2853 22.5663 15.4511 22.0834 16.6666 22.0834C17.8822 22.0834 19.048 22.5663 19.9076 23.4258C20.7671 24.2853 21.25 25.4511 21.25 26.6667C21.25 27.8823 20.7671 29.0481 19.9076 29.9076C19.048 30.7672 17.8822 31.25 16.6666 31.25ZM27.9166 13.3334C27.9166 14.5489 27.4338 15.7147 26.5742 16.5743C25.7147 17.4338 24.5489 17.9167 23.3333 17.9167C22.1177 17.9167 20.9519 17.4338 20.0924 16.5743C19.2329 15.7147 18.75 14.5489 18.75 13.3334C18.75 12.1178 19.2329 10.952 20.0924 10.0925C20.9519 9.23293 22.1177 8.75004 23.3333 8.75004C24.5489 8.75004 25.7147 9.23293 26.5742 10.0925C27.4338 10.952 27.9166 12.1178 27.9166 13.3334ZM22.0833 26.6667C22.0833 26.3352 22.215 26.0172 22.4494 25.7828C22.6839 25.5484 23.0018 25.4167 23.3333 25.4167H31.6666C31.9982 25.4167 32.3161 25.5484 32.5505 25.7828C32.785 26.0172 32.9166 26.3352 32.9166 26.6667C32.9166 26.9982 32.785 27.3162 32.5505 27.5506C32.3161 27.785 31.9982 27.9167 31.6666 27.9167H23.3333C23.0018 27.9167 22.6839 27.785 22.4494 27.5506C22.215 27.3162 22.0833 26.9982 22.0833 26.6667ZM16.6666 12.0834C16.9982 12.0834 17.3161 12.2151 17.5505 12.4495C17.7849 12.6839 17.9166 13.0019 17.9166 13.3334C17.9166 13.6649 17.7849 13.9828 17.5505 14.2173C17.3161 14.4517 16.9982 14.5834 16.6666 14.5834H8.33331C8.00179 14.5834 7.68385 14.4517 7.44943 14.2173C7.21501 13.9828 7.08331 13.6649 7.08331 13.3334C7.08331 13.0019 7.21501 12.6839 7.44943 12.4495C7.68385 12.2151 8.00179 12.0834 8.33331 12.0834H16.6666ZM7.08331 26.6667C7.08331 26.3352 7.21501 26.0172 7.44943 25.7828C7.68385 25.5484 8.00179 25.4167 8.33331 25.4167H9.99998C10.3315 25.4167 10.6494 25.5484 10.8839 25.7828C11.1183 26.0172 11.25 26.3352 11.25 26.6667C11.25 26.9982 11.1183 27.3162 10.8839 27.5506C10.6494 27.785 10.3315 27.9167 9.99998 27.9167H8.33331C8.00179 27.9167 7.68385 27.785 7.44943 27.5506C7.21501 27.3162 7.08331 26.9982 7.08331 26.6667ZM31.6666 12.0834C31.9982 12.0834 32.3161 12.2151 32.5505 12.4495C32.785 12.6839 32.9166 13.0019 32.9166 13.3334C32.9166 13.6649 32.785 13.9828 32.5505 14.2173C32.3161 14.4517 31.9982 14.5834 31.6666 14.5834H30C29.6685 14.5834 29.3505 14.4517 29.1161 14.2173C28.8817 13.9828 28.75 13.6649 28.75 13.3334C28.75 13.0019 28.8817 12.6839 29.1161 12.4495C29.3505 12.2151 29.6685 12.0834 30 12.0834H31.6666Z" fill="url(#paint1_linear_6264_11)"/>
<defs>
<linearGradient id="paint0_linear_6264_11" x1="20" y1="11.25" x2="20" y2="28.75" gradientUnits="userSpaceOnUse">
<stop offset="0.0769231" stop-color="white"/>
<stop offset="1" stop-color="#9066FB"/>
</linearGradient>
<linearGradient id="paint1_linear_6264_11" x1="20" y1="3.33337" x2="20" y2="36.6667" gradientUnits="userSpaceOnUse">
<stop offset="0.0769231" stop-color="white"/>
<stop offset="1" stop-color="#9066FB"/>
</linearGradient>
</defs>
</svg>
