<svg width="62" height="62" viewBox="0 0 62 62" fill="none" xmlns="http://www.w3.org/2000/svg">
<g clip-path="url(#clip0_4233_252)">
<mask id="mask0_4233_252" style="mask-type:luminance" maskUnits="userSpaceOnUse" x="0" y="0" width="62" height="63">
<path d="M62 0H0V62.0001H62V0Z" fill="white"/>
</mask>
<g mask="url(#mask0_4233_252)">
<mask id="mask1_4233_252" style="mask-type:luminance" maskUnits="userSpaceOnUse" x="0" y="0" width="62" height="63">
<path d="M62 0.000244141H0V62.0003H62V0.000244141Z" fill="white"/>
</mask>
<g mask="url(#mask1_4233_252)">
<path d="M62 0.000244141H0V62.0003H62V0.000244141Z" fill="#23C99D" fill-opacity="0.04"/>
<g opacity="0.6" filter="url(#filter0_f_4233_252)">
<path d="M31 69.75C41.7005 69.75 50.375 66.2802 50.375 62C50.375 57.7197 41.7005 54.25 31 54.25C20.2995 54.25 11.625 57.7197 11.625 62C11.625 66.2802 20.2995 69.75 31 69.75Z" fill="#3FF6A9"/>
</g>
<g opacity="0.64" filter="url(#filter1_f_4233_252)">
<path d="M31 42.6252C37.4203 42.6252 42.625 37.4206 42.625 31.0002C42.625 24.5799 37.4203 19.3752 31 19.3752C24.5797 19.3752 19.375 24.5799 19.375 31.0002C19.375 37.4206 24.5797 42.6252 31 42.6252Z" fill="#23C99D"/>
</g>
<path opacity="0.24" d="M0.96875 15.5003H61.0312M0.96875 46.5004H61.0312M15.5 61.0317V0.969116M46.5 61.0317V0.969116M5.48958 5.48996L57.1562 57.1567M5.48958 56.5108L56.5104 5.48995M53.2812 31.6463C53.2812 43.9518 43.3056 53.9275 31 53.9275C18.6944 53.9275 8.71875 43.9518 8.71875 31.6463C8.71875 19.3406 18.6944 9.36496 31 9.36496C43.3056 9.36496 53.2812 19.3406 53.2812 31.6463Z" stroke="#23C99D" stroke-width="0.469838" stroke-linecap="round" stroke-linejoin="round"/>
</g>
</g>
<path fill-rule="evenodd" clip-rule="evenodd" d="M19.3198 25.2185L18.6461 27.9265H15.186C14.8715 27.9265 14.5698 28.052 14.3474 28.2754C14.125 28.4987 14 28.8017 14 29.1176C14 29.4336 14.125 29.7365 14.3474 29.9599C14.5698 30.1833 14.8715 30.3088 15.186 30.3088H46.814C47.1285 30.3088 47.4302 30.1833 47.6526 29.9599C47.875 29.7365 48 29.4336 48 29.1176C48 28.8017 47.875 28.4987 47.6526 28.2754C47.4302 28.052 47.1285 27.9265 46.814 27.9265H43.3554L42.6802 25.2185C41.8167 21.7514 41.3866 20.0186 40.0993 19.0085C38.8121 18 37.033 18 33.4749 18H28.5251C24.967 18 23.1879 18 21.9007 19.0085C20.6134 20.0186 20.1817 21.7514 19.3198 25.2185ZM22.3023 45C23.5237 45.0002 24.7108 44.5947 25.6788 43.8467C26.6467 43.0986 27.3411 42.05 27.6538 40.8642L29.4091 39.9828C29.9031 39.7348 30.4478 39.6057 31 39.6057C31.5522 39.6057 32.0969 39.7348 32.5909 39.9828L34.3462 40.8642C34.692 42.1677 35.4978 43.3006 36.6135 44.0516C37.7292 44.8027 39.0788 45.1208 40.4107 44.9467C41.7426 44.7726 42.9661 44.1181 43.8532 43.1053C44.7403 42.0924 45.2305 40.7901 45.2326 39.4412C45.2347 38.0753 44.736 36.7564 43.8316 35.7363C42.9273 34.7161 41.6806 34.066 40.3295 33.9101C38.9784 33.7542 37.6174 34.1033 36.5063 34.8909C35.3951 35.6785 34.6115 36.8493 34.3051 38.1801L33.652 37.8529C32.8286 37.4395 31.9206 37.2242 31 37.2242C30.0794 37.2242 29.1714 37.4395 28.348 37.8529L27.6949 38.1801C27.3856 36.8521 26.6011 35.6845 25.4906 34.8995C24.3801 34.1144 23.021 33.7667 21.6719 33.9224C20.3227 34.0781 19.0776 34.7263 18.1734 35.7439C17.2691 36.7614 16.7687 38.0773 16.7674 39.4412C16.7674 40.9155 17.3506 42.3294 18.3886 43.3719C19.4266 44.4143 20.8344 45 22.3023 45Z" fill="#15F5BA"/>
</g>
<rect x="0.25" y="0.25" width="61.5" height="61.5" rx="14.75" stroke="#15F5BA" stroke-width="0.5" stroke-linejoin="round"/>
<defs>
<filter id="filter0_f_4233_252" x="-0.90402" y="41.721" width="63.808" height="40.558" filterUnits="userSpaceOnUse" color-interpolation-filters="sRGB">
<feFlood flood-opacity="0" result="BackgroundImageFix"/>
<feBlend mode="normal" in="SourceGraphic" in2="BackgroundImageFix" result="shape"/>
<feGaussianBlur stdDeviation="6.26451" result="effect1_foregroundBlur_4233_252"/>
</filter>
<filter id="filter1_f_4233_252" x="0.58148" y="0.581724" width="60.837" height="60.837" filterUnits="userSpaceOnUse" color-interpolation-filters="sRGB">
<feFlood flood-opacity="0" result="BackgroundImageFix"/>
<feBlend mode="normal" in="SourceGraphic" in2="BackgroundImageFix" result="shape"/>
<feGaussianBlur stdDeviation="9.39676" result="effect1_foregroundBlur_4233_252"/>
</filter>
<clipPath id="clip0_4233_252">
<rect width="62" height="62" rx="15" fill="white"/>
</clipPath>
</defs>
</svg>
