<svg width="40" height="40" viewBox="0 0 40 40" fill="none" xmlns="http://www.w3.org/2000/svg">
<path d="M31.6667 5H8.33337C5.97671 5 4.79837 5 4.06671 5.68667C3.33504 6.37333 3.33337 7.48 3.33337 9.69167V10.8417C3.33337 12.57 3.33337 13.435 3.76671 14.1517C4.20004 14.8683 4.98837 15.315 6.57004 16.205L11.425 18.9383C12.485 19.535 13.0167 19.8333 13.3967 20.1633C14.1867 20.8483 14.6734 21.655 14.8934 22.6467C15 23.12 15 23.6767 15 24.7883V29.2383C15 30.7533 15 31.5117 15.42 32.1017C15.84 32.6933 16.5867 32.985 18.0767 33.5683C21.2084 34.7917 22.7734 35.4033 23.8867 34.7067C25 34.01 25 32.42 25 29.2367V24.7867C25 23.6767 25 23.12 25.1067 22.645C25.316 21.6736 25.8433 20.7997 26.605 20.1617C26.9834 19.8333 27.515 19.535 28.575 18.9367L33.43 16.2033C35.01 15.315 35.8017 14.87 36.2334 14.1533C36.6667 13.4367 36.6667 12.57 36.6667 10.84V9.69C36.6667 7.48 36.6667 6.37333 35.9334 5.68667C35.2034 5 34.025 5 31.6667 5Z" fill="url(#paint0_linear_6265_20)"/>
<defs>
<linearGradient id="paint0_linear_6265_20" x1="20" y1="5" x2="20" y2="34.9997" gradientUnits="userSpaceOnUse">
<stop stop-color="white"/>
<stop offset="0.841346" stop-color="#9066FB"/>
</linearGradient>
</defs>
</svg>
