<svg width="400" height="402" viewBox="0 0 400 402" fill="none" xmlns="http://www.w3.org/2000/svg">
<path opacity="0.27" d="M188.225 15.2136C194.365 17.2516 200.63 19.4206 207.014 21.6269C213.41 23.5091 219.938 25.2916 226.583 26.937C233.254 28.1461 240.044 29.2181 246.927 30.1717C253.828 30.7513 260.799 31.3185 267.788 31.9355C274.733 32.3718 281.635 33.0013 288.399 33.8863C295.002 34.8025 301.354 36.1051 307.332 37.8191C312.973 39.7325 318.09 42.1382 322.565 45.0177C326.527 48.1713 329.722 51.8112 332.069 55.8997C333.86 60.25 334.802 65.0055 334.933 70.1162C334.696 75.4264 333.86 81.0232 332.574 86.8507C331.413 92.809 330.215 98.9356 329.223 105.193C328.998 111.513 329.417 117.914 330.671 124.364C333.148 130.84 336.649 137.341 341.167 143.835C346.783 150.342 353.123 156.842 359.913 163.318C366.977 169.794 373.772 176.238 379.856 182.645C385.061 189.052 388.811 195.409 390.777 201.698C391.101 207.987 389.454 214.045 386.022 219.853C381.292 225.65 375.326 231.184 368.53 236.426C361.479 241.63 354.359 246.529 347.538 251.097C341.454 255.616 336.156 259.785 331.788 263.6C327.47 269.078 324.605 278.377 325.098 282.347C326.359 286.305 327.488 294.27 326.484 298.726C325.186 302.223 323.095 306.025 320.243 310.207C316.917 314.962 312.886 320.154 308.231 325.763C303.201 331.89 297.672 338.334 291.763 344.991C285.622 351.84 279.22 358.628 272.649 365.134C265.978 371.33 259.226 376.864 252.462 381.507C245.672 385.328 238.908 387.946 232.225 389.236C225.541 389.441 218.945 388.276 212.462 385.789C205.984 382.461 199.607 378.136 193.348 373.037C187.083 367.814 181.067 362.511 175.295 357.412C169.498 352.975 163.919 349.148 158.546 346.057C153.136 344.006 147.9 342.747 142.833 342.224C137.691 342.629 132.68 343.52 127.782 344.729C122.777 346.412 117.841 348.038 112.967 349.435C107.944 350.781 102.939 351.585 97.9532 351.734C92.7987 351.473 87.6505 350.407 82.5023 348.525C77.2231 346.106 71.975 342.884 66.7831 338.933C61.5413 334.501 56.4243 329.447 51.4883 323.881C46.6209 317.998 42.0281 311.734 37.7722 305.208C33.716 298.521 30.0717 291.677 26.8955 284.759C23.9937 277.804 21.585 270.842 19.688 263.924C18.0405 257.024 16.8549 250.194 16.1061 243.462C15.4696 236.769 15.1638 230.175 15.1451 223.68C15.0327 217.223 15.0702 210.854 15.2262 204.59C15.1201 198.345 15.039 192.181 14.9766 186.123C14.6084 180.071 14.2839 174.244 14.0468 168.665C13.6287 163.075 13.404 157.715 13.4352 152.598C13.4852 147.475 13.9157 142.582 14.7644 137.933C15.819 133.258 17.3728 128.814 19.4321 124.595C21.7722 120.326 24.6302 116.262 27.9563 112.379C31.5257 108.409 35.507 104.576 39.8377 100.868C44.287 97.0035 48.9859 93.2016 53.8721 89.4309C58.7395 85.4483 63.7067 81.4408 68.7238 77.3959C73.6162 73.0892 78.5148 68.7202 83.4134 64.2826C88.1248 59.6019 92.8362 54.8838 97.5476 50.1658C102.078 45.3044 106.64 40.524 111.251 35.8994C115.719 31.3123 120.287 27.0118 124.961 23.0978C129.541 19.4268 134.271 16.2731 139.164 13.724C144 11.5675 149.036 10.0904 154.271 9.31758C159.47 8.96233 164.899 9.27395 170.552 10.2275C176.193 11.4367 182.078 13.1257 188.218 15.2073" stroke="url(#paint0_linear_2203_884)" stroke-width="2" stroke-linecap="round" stroke-dasharray="8 6"/>
<path opacity="0.48" d="M204.386 22.7494C210.227 25.1795 216.175 27.7609 222.213 30.3862C228.293 32.7083 234.482 34.9631 240.769 37.0935C247.097 38.8208 253.509 40.4165 259.978 41.9038C266.462 43.0234 272.953 44.1124 279.393 45.2227C285.767 46.1222 292.005 47.1683 298.017 48.3984C303.837 49.6149 309.316 51.1323 314.34 52.98C319.017 54.9533 323.11 57.3288 326.53 60.0942C329.486 63.0579 331.687 66.4309 333.092 70.1792C334.051 74.1394 334.259 78.4467 333.789 83.0619C333.093 87.8678 331.945 92.9474 330.5 98.2562C329.288 103.719 328.155 109.394 327.316 115.233C327.25 121.214 327.829 127.353 329.214 133.611C331.696 139.991 335.091 146.478 339.357 153.034C344.555 159.673 350.326 166.353 356.411 173.025C362.675 179.721 368.611 186.356 373.836 192.885C378.232 199.362 381.271 205.675 382.678 211.785C382.591 217.789 380.716 223.424 377.203 228.687C372.49 233.847 366.62 238.656 359.943 243.121C352.955 247.539 345.821 251.647 338.877 255.449C332.514 259.268 326.802 262.814 321.884 266.097C316.495 271.003 311.198 279.907 310.574 284.043C310.925 288.373 311.168 297.406 310.18 302.447C309.04 306.278 307.217 310.373 304.698 314.77C301.758 319.635 298.132 324.822 293.878 330.301C289.254 336.16 284.098 342.195 278.504 348.311C272.674 354.497 266.532 360.5 260.178 366.137C253.725 371.405 247.17 375.985 240.597 379.676C234.03 382.568 227.512 384.333 221.101 384.849C214.752 384.395 208.529 382.688 202.455 379.772C196.445 376.118 190.562 371.555 184.816 366.288C179.073 360.903 173.553 355.44 168.234 350.154C162.856 345.439 157.628 341.259 152.529 337.737C147.325 335.14 142.222 333.268 137.201 332.076C132.051 331.75 126.972 331.911 121.951 332.413C116.795 333.404 111.687 334.425 106.626 335.312C101.437 336.233 96.2908 336.738 91.1938 336.71C85.9881 336.374 80.8368 335.348 75.761 333.61C70.6309 331.41 65.6019 328.481 60.7149 324.869C55.853 320.815 51.1966 316.156 46.783 310.984C42.498 305.496 38.5408 299.618 34.9613 293.443C31.6066 287.095 28.6906 280.56 26.2445 273.927C24.0779 267.233 22.3885 260.515 21.1916 253.82C20.2197 247.129 19.6809 240.506 19.5485 233.973C19.502 227.466 19.7494 221.048 20.2508 214.753C20.6455 208.465 21.1639 202.285 21.7685 196.21C22.1047 190.13 22.4525 184.15 22.7986 178.282C22.8339 172.386 22.889 166.742 22.9963 161.332C22.9106 155.909 22.9891 150.729 23.2817 145.795C23.582 140.843 24.2144 136.145 25.2299 131.693C26.4285 127.216 28.0853 122.985 30.2202 118.98C32.6271 114.933 35.5202 111.088 38.8695 107.426C42.4816 103.675 46.5028 100.066 50.8797 96.5573C55.4166 92.91 60.2314 89.3132 65.2568 85.7438C70.3226 81.965 75.5145 78.1637 80.8025 74.332C86.0143 70.2571 91.2724 66.1355 96.5404 61.9712C101.673 57.5972 106.806 53.2108 111.938 48.8554C116.913 44.4017 121.899 40.0673 126.909 35.9283C131.77 31.8476 136.677 28.095 141.644 24.7402C146.486 21.6392 151.417 19.0628 156.449 17.081C161.379 15.4794 166.438 14.5367 171.629 14.2781C176.751 14.4019 182.039 15.1748 187.496 16.5594C192.917 18.179 198.544 20.263 204.381 22.7428" stroke="url(#paint1_linear_2203_884)" stroke-width="2" stroke-linecap="round" stroke-dasharray="1 8"/>
<path opacity="0.45" d="M219.179 31.6023C224.681 34.3969 230.251 37.3334 235.888 40.3297C241.571 43.0553 247.331 45.7166 253.156 48.2861C259.035 50.4669 264.962 52.5348 270.893 54.4837C276.836 56.0818 282.73 57.6288 288.507 59.1592C294.216 60.4535 299.711 61.8369 304.916 63.3496C309.925 64.7837 314.531 66.4372 318.635 68.335C324 71.4251 330.904 79.3473 332.294 84.2024C332.633 87.7132 332.343 91.5245 331.491 95.6149C330.55 99.8879 329.274 104.428 327.838 109.211C326.707 114.194 325.739 119.413 325.11 124.851C325.241 130.497 325.983 136.363 327.46 142.42C329.924 148.674 333.165 155.102 337.131 161.65C341.871 168.341 347.042 175.104 352.416 181.865C357.879 188.658 362.971 195.36 367.366 201.907C370.989 208.351 373.354 214.541 374.245 220.427C373.788 226.122 371.716 231.343 368.167 236.09C363.519 240.681 357.796 244.849 351.296 248.629C344.441 252.341 337.39 255.741 330.434 258.872C323.912 262.052 317.911 265.028 312.571 267.834C308.112 270.777 304.435 273.592 301.502 276.312C298.698 280.654 296.212 289.543 295.624 294.25C295.345 297.723 294.764 301.323 293.77 305.079C292.577 309.215 290.806 313.56 288.436 318.128C285.716 323.074 282.362 328.226 278.409 333.552C274.124 339.132 269.316 344.758 264.067 350.334C258.591 355.872 252.789 361.129 246.765 365.947C240.656 370.35 234.448 374.034 228.204 376.85C222.013 378.906 215.878 379.893 209.864 379.726C203.955 378.687 198.195 376.504 192.604 373.231C187.11 369.311 181.76 364.561 176.539 359.169C171.332 353.671 166.315 348.088 161.453 342.652C156.502 337.707 151.636 333.227 146.836 329.311C141.88 326.223 136.951 323.78 132.043 321.951C126.958 320.922 121.876 320.358 116.813 320.15C111.591 320.436 106.389 320.807 101.221 321.119C95.9346 321.546 90.7053 321.667 85.5546 321.365C80.3383 320.858 75.2288 319.781 70.2497 318.094C65.2725 316.041 60.4703 313.332 55.8872 310.014C51.3831 306.316 47.1549 302.052 43.235 297.304C39.5029 292.255 36.134 286.823 33.1859 281.092C30.489 275.189 28.2431 269.086 26.4743 262.861C24.98 256.568 23.9534 250.222 23.3972 243.892C23.051 237.548 23.1011 231.253 23.5307 225.038C24.0222 218.831 24.7793 212.707 25.7474 206.694C26.6034 200.671 27.5655 194.746 28.5823 188.922C29.3379 183.074 30.0812 177.312 30.8035 171.655C31.2221 165.961 31.6392 160.499 32.067 155.272C32.3113 150.006 32.6784 144.984 33.2249 140.208C33.7617 135.412 34.5917 130.859 35.7573 126.561C37.0895 122.242 38.8484 118.161 41.0344 114.309C43.4897 110.428 46.4023 106.742 49.7545 103.245C53.3767 99.6673 57.4076 96.2288 61.7952 92.8975C66.3839 89.4378 71.2613 86.0311 76.3802 82.6524C81.5876 79.098 86.9605 75.5286 92.4494 71.9443C97.9227 68.1567 103.47 64.3412 109.05 60.5059C114.536 56.5056 120.035 52.5327 125.532 48.6223C130.899 44.6557 136.258 40.8327 141.603 37.2406C146.809 33.736 152.024 30.5663 157.231 27.8108C162.314 25.3085 167.41 23.3305 172.539 21.9298C177.553 20.8845 182.615 20.4755 187.743 20.7179C192.776 21.3119 197.906 22.5176 203.147 24.3121C208.34 26.3075 213.677 28.7575 219.173 31.5953" stroke="url(#paint2_linear_2203_884)" stroke-width="2" stroke-linecap="round" stroke-dasharray="7 6"/>
<path opacity="0.34" d="M232.167 41.5243C237.294 44.6319 242.442 47.8841 247.609 51.1917C252.836 54.2506 258.096 57.2722 263.372 60.1949C268.716 62.7693 274.06 65.2224 279.359 67.5634C284.68 69.5591 289.898 71.4749 294.947 73.3416C299.928 74.9583 304.655 76.6037 309.043 78.3096C315.143 80.7527 324.467 86.4244 327.423 89.8055C329.269 93.5419 329.498 102.509 328.193 107.743C327.187 111.505 325.956 115.538 324.655 119.836C323.729 124.354 322.996 129.157 322.622 134.221C322.957 139.552 323.865 145.153 325.417 150.999C327.813 157.097 330.864 163.419 334.507 169.899C338.761 176.561 343.33 183.304 347.993 190.054C352.671 196.827 356.957 203.489 360.564 209.956C363.451 216.267 365.199 222.271 365.611 227.893C364.822 233.257 362.59 238.082 359.039 242.369C354.487 246.441 348.944 250.046 342.667 253.238C336.014 256.338 329.119 259.136 322.234 261.681C315.646 264.297 309.46 266.77 303.813 269.135C298.879 271.691 294.622 274.214 291.031 276.727C287.066 280.919 282.268 290.025 280.684 295.047C279.834 298.76 278.802 302.611 277.461 306.62C276.022 310.965 274.128 315.473 271.722 320.133C269.061 325.09 265.84 330.155 262.089 335.279C258.065 340.549 253.563 345.754 248.638 350.791C243.539 355.716 238.123 360.272 232.492 364.317C226.819 367.932 221.043 370.812 215.246 372.838C209.531 374.156 203.88 374.467 198.354 373.716C192.972 372.179 187.744 369.604 182.694 366.047C177.754 361.922 172.955 357.049 168.28 351.571C163.622 346.014 159.114 340.355 154.715 334.809C150.207 329.686 145.735 324.953 141.263 320.698C136.61 317.169 131.918 314.2 127.186 311.782C122.247 310.086 117.264 308.826 112.252 307.916C107.065 307.493 101.876 307.195 96.7039 306.909C91.4253 306.79 86.2053 306.46 81.0846 305.815C75.9301 305.06 70.9136 303.844 66.0799 302.131C61.2994 300.144 56.7455 297.605 52.4661 294.533C48.3232 291.151 44.5057 287.267 41.0505 282.943C37.823 278.362 34.9983 273.422 32.6257 268.189C30.516 262.803 28.8719 257.21 27.7081 251.491C26.8085 245.701 26.37 239.844 26.3795 233.981C26.5731 228.095 27.1492 222.239 28.0635 216.443C29.0245 210.637 30.2208 204.895 31.6079 199.246C32.8683 193.562 34.2131 187.96 35.5985 182.438C36.7249 176.872 37.8309 171.372 38.905 165.961C39.685 160.493 40.4339 155.229 41.1797 150.187C41.7328 145.091 42.383 140.226 43.1818 135.591C43.9479 130.93 44.9762 126.503 46.3035 122.319C47.768 118.12 49.6159 114.156 51.8635 110.412C54.3573 106.65 57.2876 103.084 60.6316 99.7022C64.249 96.2649 68.259 92.9623 72.6396 89.7775C77.2331 86.4917 82.1385 83.2663 87.3011 80.0958C92.5853 76.7739 98.0712 73.4625 103.703 70.1574C109.367 66.6996 115.122 63.2355 120.93 59.7958C126.686 56.2367 132.469 52.7342 138.236 49.3305C143.912 45.9072 149.556 42.6619 155.166 39.6643C160.644 36.7785 166.086 34.2357 171.483 32.1103C176.731 30.2334 181.946 28.8658 187.125 28.0515C192.176 27.5666 197.206 27.6829 202.232 28.4103C207.152 29.4528 212.1 31.0752 217.092 33.2421C222.026 35.5879 227.043 38.3726 232.161 41.523" stroke="url(#paint3_linear_2203_884)" stroke-width="2" stroke-linecap="round" stroke-dasharray="6 5"/>
<path opacity="0.09" d="M243.022 52.184C247.734 55.5593 252.416 59.0621 257.068 62.621C261.78 65.951 266.489 69.2474 271.161 72.4491C275.913 75.3298 280.614 78.0921 285.229 80.7253C289.87 83.0289 294.375 85.2346 298.668 87.3462C302.918 89.1997 306.875 91.0327 310.485 92.8564C315.458 95.3986 322.687 100.826 324.755 103.864C325.904 107.136 325.377 114.887 324.036 119.444C323.115 122.753 322.067 126.343 321.01 130.209C320.348 134.327 319.906 138.76 319.805 143.5C320.353 148.532 321.405 153.885 322.999 159.518C325.316 165.438 328.153 171.606 331.439 177.969C335.207 184.51 339.172 191.154 343.143 197.799C347.067 204.45 350.585 210.978 353.463 217.274C355.667 223.382 356.846 229.148 356.827 234.476C355.739 239.502 353.386 243.941 349.851 247.817C345.418 251.427 340.082 254.548 334.051 257.241C327.642 259.825 320.95 262.112 314.2 264.169C307.638 266.299 301.355 268.316 295.487 270.29C290.187 272.481 285.441 274.709 281.266 277.005C277.743 279.606 274.728 282.322 272.135 285.166C270.042 288.35 268.178 291.684 266.434 295.164C264.915 298.988 263.3 302.965 261.495 307.083C259.659 311.508 257.481 316.056 254.901 320.696C252.152 325.558 248.946 330.451 245.29 335.304C241.445 340.226 237.179 344.987 232.553 349.488C227.808 353.819 222.794 357.708 217.589 361.049C212.388 363.95 207.101 366.119 201.81 367.449C196.635 368.131 191.531 367.874 186.557 366.636C181.75 364.706 177.101 361.829 172.613 358.064C168.262 353.801 164.037 348.86 159.916 343.358C155.809 337.783 151.819 332.099 147.891 326.492C143.853 321.242 139.802 316.305 135.699 311.769C131.398 307.852 127.013 304.422 122.542 301.473C117.838 299.164 113.052 297.254 108.208 295.676C103.176 294.57 98.1117 293.617 93.0621 292.727C87.9014 292.038 82.8037 291.224 77.8196 290.197C72.8187 289.14 67.985 287.727 63.3616 285.929C58.8234 283.947 54.5595 281.512 50.6041 278.641C46.8271 275.537 43.4142 272.006 40.4048 268.091C37.6344 263.98 35.3032 259.542 33.4377 254.842C31.8452 250.008 30.7291 244.987 30.0876 239.831C29.6983 234.612 29.7524 229.319 30.2361 224.002C30.8827 218.661 31.8868 213.319 33.2121 208.012C34.5565 202.683 36.1158 197.399 37.8489 192.164C39.4501 186.891 41.1223 181.665 42.8304 176.494C44.2789 171.255 45.7093 166.057 47.1009 160.924C48.2065 155.702 49.2703 150.67 50.3137 145.819C51.167 140.908 52.0975 136.2 53.137 131.699C54.1474 127.164 55.3722 122.853 56.8627 118.768C58.469 114.665 60.4182 110.79 62.7332 107.132C65.273 103.461 68.2115 99.9833 71.5507 96.6931C75.1457 93.3731 79.1288 90.1907 83.4702 87.1393C88.0405 84.0167 92.9242 80.9784 98.0855 78.0142C103.394 74.9434 108.925 71.9112 114.615 68.9184C120.373 65.822 126.245 62.7587 132.184 59.7535C138.111 56.6799 144.065 53.6921 150.011 50.8446C155.88 48.0141 161.71 45.3862 167.479 43.0132C173.131 40.7751 178.708 38.8851 184.193 37.4031C189.535 36.1655 194.791 35.4027 199.959 35.172C204.982 35.237 209.932 35.8651 214.809 37.0562C219.574 38.526 224.301 40.5299 229.006 43.0336C233.65 45.7015 238.316 48.7651 243.016 52.1823" stroke="url(#paint4_linear_2203_884)" stroke-width="2" stroke-linecap="round" stroke-dasharray="2 5"/>
<path opacity="0.32" d="M251.544 63.2012C255.808 66.7874 259.986 70.4808 264.09 74.2141C268.262 77.7455 272.375 81.2364 276.422 84.6362C280.545 87.7382 284.574 90.7198 288.487 93.5594C292.443 96.0885 296.227 98.4887 299.781 100.771C304.94 103.769 313.431 109.221 316.541 111.825C320.019 117.166 320.299 126.713 319.129 130.719C318.418 133.659 317.636 136.884 316.889 140.409C316.537 144.198 316.404 148.332 316.576 152.792C317.331 157.566 318.498 162.683 320.109 168.11C322.312 173.827 324.909 179.809 327.836 185.998C331.116 192.363 334.496 198.819 337.807 205.282C341.03 211.732 343.834 218.035 346.024 224.093C347.613 229.943 348.277 235.414 347.872 240.432C346.532 245.113 344.073 249.19 340.569 252.691C336.269 255.899 331.155 258.609 325.392 260.894C319.247 263.045 312.791 264.904 306.222 266.547C299.747 268.258 293.448 269.888 287.439 271.506C281.864 273.355 276.727 275.28 272.05 277.326C267.918 279.699 264.217 282.238 260.903 284.951C258.034 288.028 255.405 291.285 252.922 294.723C250.69 298.505 248.429 302.442 246.064 306.514C243.737 310.866 241.171 315.302 238.311 319.783C235.365 324.438 232.072 329.045 228.429 333.557C224.667 338.066 220.584 342.343 216.216 346.296C211.79 350.043 207.155 353.313 202.381 356.002C197.652 358.262 192.876 359.801 188.115 360.542C183.504 360.694 178.972 359.964 174.58 358.331C170.369 356.099 166.308 353.006 162.405 349.109C158.645 344.784 154.997 339.831 151.433 334.364C147.894 328.827 144.426 323.169 140.99 317.551C137.439 312.227 133.837 307.152 130.151 302.391C126.26 298.171 122.25 294.347 118.114 290.935C113.744 288.087 109.271 285.593 104.696 283.407C99.9389 281.665 95.1302 280.097 90.3289 278.619C85.4116 277.383 80.5598 276.078 75.826 274.651C71.0834 273.266 66.5218 271.624 62.1987 269.696C57.9689 267.677 54.0342 265.308 50.4458 262.594C47.0397 259.729 44.0215 256.515 41.4352 252.994C39.0883 249.33 37.2021 245.389 35.7906 241.224C34.6371 236.955 33.9565 232.521 33.7537 227.964C33.7775 223.351 34.2282 218.662 35.0928 213.932C36.1003 209.176 37.4401 204.402 39.0757 199.637C40.7183 194.835 42.57 190.042 44.5687 185.285C46.4391 180.461 48.3782 175.648 50.3402 170.863C52.068 165.993 53.768 161.125 55.4411 156.294C56.8412 151.356 58.1933 146.567 59.5208 141.935C60.6572 137.225 61.8574 132.686 63.1427 128.33C64.3901 123.934 65.8222 119.739 67.4797 115.745C69.24 111.743 71.3037 107.946 73.6887 104.36C76.279 100.775 79.2388 97.3805 82.5673 94.1745C86.1392 90.9579 90.08 87.8965 94.3614 84.974C98.8806 82.0192 103.707 79.1703 108.811 76.4173C114.079 73.6114 119.575 70.876 125.249 68.219C131.014 65.5097 136.9 62.8715 142.869 60.33C148.848 57.7652 154.854 55.3236 160.851 53.0512C166.789 50.8303 172.685 48.8329 178.495 47.103C184.198 45.5196 189.8 44.2841 195.279 43.4353C200.616 42.8266 205.829 42.6637 210.897 42.9853C215.822 43.5865 220.621 44.6925 225.296 46.3172C229.853 48.1848 234.316 50.5287 238.69 53.3311C243.012 56.274 247.286 59.5783 251.538 63.1993" stroke="url(#paint5_linear_2203_884)" stroke-width="2" stroke-linecap="round" stroke-dasharray="2 5"/>
<path opacity="0.4" d="M257.67 74.1848C261.461 77.9194 265.125 81.7406 268.665 85.5748C272.275 89.2421 275.787 92.8513 279.193 96.3653C282.684 99.6099 286.056 102.726 289.28 105.686C294.116 109.624 302.709 116.414 306.272 119.349C311.508 124.404 315.101 131.932 314.893 134.778C314.441 137.951 312.916 145.72 312.28 150.472C312.246 154.025 312.409 157.912 312.839 162.151C313.761 166.708 315.014 171.612 316.6 176.837C318.664 182.338 321.01 188.109 323.568 194.078C326.376 200.208 329.193 206.423 331.887 212.637C334.45 218.808 336.6 224.832 338.175 230.598C339.21 236.136 339.408 241.283 338.652 245.98C337.097 250.311 334.556 254.05 331.102 257.219C326.949 260.068 322.043 262.435 316.555 264.376C310.685 266.164 304.496 267.674 298.139 268.978C291.806 270.333 285.546 271.619 279.473 272.914C273.72 274.428 268.281 276.049 263.202 277.812C258.556 279.905 254.263 282.186 250.301 284.676C246.725 287.524 243.371 290.575 240.182 293.823C237.244 297.396 234.329 301.129 231.377 304.99C228.514 309.095 225.505 313.265 222.306 317.445C219.099 321.751 215.651 325.969 211.956 330.036C208.223 334.064 204.259 337.818 200.104 341.206C195.951 344.376 191.663 347.041 187.299 349.132C183.022 350.817 178.738 351.802 174.507 352.032C170.443 351.742 166.486 350.639 162.67 348.705C159.048 346.263 155.571 343.031 152.243 339.074C149.065 334.753 145.983 329.854 142.971 324.467C139.984 319.023 137.046 313.443 134.112 307.866C131.067 302.538 127.944 297.381 124.72 292.48C121.287 288.025 117.709 283.893 113.999 280.099C110.051 276.806 105.977 273.819 101.8 271.106C97.4278 268.812 93.001 266.685 88.5623 264.675C84.0113 262.929 79.5239 261.178 75.1545 259.363C70.7726 257.653 66.5823 255.775 62.6328 253.712C58.7774 251.623 55.2304 249.289 52.0362 246.705C49.023 244.037 46.4128 241.113 44.2283 237.943C42.2779 234.695 40.7906 231.223 39.7654 227.577C38.9888 223.865 38.6755 220.006 38.8132 216.042C39.1589 212.042 39.9175 207.96 41.0653 203.836C42.3319 199.675 43.9153 195.48 45.775 191.278C47.6356 187.03 49.6852 182.757 51.8829 178.489C53.9462 174.139 56.0811 169.769 58.2496 165.398C60.1956 160.915 62.1271 156.418 64.0381 151.905C65.6968 147.285 67.3093 142.767 68.8899 138.365C70.3021 133.881 71.7542 129.537 73.2818 125.344C74.757 121.1 76.3988 117.033 78.2322 113.148C80.1461 109.252 82.3283 105.551 84.8051 102.044C87.4478 98.5504 90.4338 95.2521 93.7505 92.1296C97.2918 89.0264 101.177 86.0847 105.385 83.3087C109.81 80.5209 114.54 77.877 119.532 75.3509C124.705 72.8174 130.095 70.3954 135.66 68.0856C141.339 65.7659 147.143 63.5639 153.018 61.4902C158.929 59.4456 164.866 57.5563 170.791 55.8599C176.674 54.2404 182.497 52.8606 188.228 51.7606C193.86 50.8208 199.371 50.2096 204.727 49.9729C209.949 49.9564 215.018 50.3562 219.901 51.1987C224.643 52.2924 229.223 53.839 233.628 55.8474C237.918 58.0641 242.068 60.7161 246.08 63.764C250.032 66.9289 253.894 70.4154 257.664 74.1823" stroke="url(#paint6_linear_2203_884)" stroke-width="2" stroke-linecap="round" stroke-dasharray="4 10"/>
<path opacity="0.17" d="M261.504 84.7833C264.802 88.607 267.938 92.4793 270.921 96.3609C273.976 100.083 276.901 103.743 279.692 107.295C282.575 110.613 285.314 113.79 287.898 116.807C291.791 120.866 298.585 127.828 301.34 130.803C305.4 135.816 308.217 142.991 308.115 145.64C307.935 148.593 307.266 155.899 307.126 160.409C307.393 163.793 307.823 167.521 308.457 171.592C309.51 175.965 310.804 180.68 312.334 185.706C314.236 190.989 316.309 196.519 318.491 202.242C320.846 208.093 323.139 214.018 325.251 219.923C327.22 225.779 328.777 231.464 329.796 236.901C330.327 242.084 330.119 246.891 329.066 251.252C327.328 255.243 324.721 258.662 321.321 261.527C317.305 264.062 312.625 266.133 307.402 267.792C301.818 269.279 295.904 270.497 289.785 271.518C283.631 272.564 277.473 273.551 271.409 274.546C265.561 275.735 259.921 277.036 254.539 278.489C249.494 280.251 244.72 282.208 240.207 284.377C236.022 286.884 232.044 289.601 228.22 292.515C224.631 295.732 221.113 299.107 217.599 302.591C214.221 306.296 210.77 310.046 207.221 313.78C203.728 317.607 200.087 321.327 196.308 324.859C192.565 328.333 188.684 331.513 184.694 334.316C180.781 336.898 176.801 338.985 172.804 340.511C167.039 341.914 156.139 340.601 151.163 337.75C148.099 335.163 145.177 331.866 142.406 327.907C139.778 323.656 137.239 318.86 134.771 313.613C132.326 308.314 129.909 302.868 127.482 297.389C124.952 292.115 122.328 286.962 119.602 281.986C116.671 277.389 113.591 273.045 110.367 268.978C106.917 265.333 103.33 261.955 99.6411 258.819C95.7566 256.059 91.8134 253.474 87.8552 251.021C83.7834 248.833 79.7684 246.683 75.8602 244.533C71.9388 242.525 68.2046 240.434 64.7051 238.235C59.7369 234.921 51.7078 227.45 48.815 223.271C46.6685 218.876 44.944 209.344 45.3442 204.286C45.9325 200.865 46.9054 197.375 48.2541 193.832C49.6902 190.258 51.4348 186.638 53.4343 182.992C55.4244 179.284 57.5971 175.54 59.916 171.761C62.112 167.895 64.3819 163.984 66.6976 160.026C68.7993 155.954 70.9104 151.836 73.0177 147.675C74.8942 143.389 76.7344 139.169 78.5478 135.027C80.2021 130.799 81.8895 126.667 83.648 122.665C85.3447 118.608 87.19 114.695 89.1981 110.94C91.2655 107.182 93.57 103.601 96.1316 100.2C98.8324 96.8172 101.84 93.628 105.147 90.6201C108.642 87.6435 112.459 84.8463 116.567 82.2199C120.877 79.624 125.465 77.1846 130.302 74.9004C135.305 72.6492 140.525 70.5357 145.911 68.5743C151.4 66.6472 157.011 64.8716 162.703 63.2654C168.428 61.7133 174.178 60.3515 179.906 59.2038C185.601 58.1667 191.232 57.3702 196.756 56.8633C202.191 56.5072 207.491 56.4817 212.618 56.8023C217.614 57.3282 222.431 58.2391 227.049 59.5455C231.526 61.0737 235.807 63.0062 239.88 65.3365C243.85 67.8588 247.636 70.7495 251.244 73.9829C254.799 77.3155 258.212 80.926 261.499 84.7802" stroke="url(#paint7_linear_2203_884)" stroke-width="2" stroke-linecap="round" stroke-dasharray="8 1"/>
<path opacity="0.13" d="M263.263 94.7093C266.075 98.5586 268.694 102.433 271.14 106.288C273.653 110.014 276.021 113.656 278.237 117.188C281.63 122.113 287.768 130.829 290.442 134.591C295.013 140.724 299.563 148.393 300.204 150.738C300.812 155.887 301.09 165.775 301.39 170.176C301.91 173.47 302.545 177.094 303.336 181.045C304.459 185.265 305.745 189.809 307.176 194.638C308.881 199.698 310.677 204.977 312.488 210.429C314.406 215.97 316.2 221.566 317.781 227.137C319.207 232.625 320.235 237.951 320.753 243.02C320.856 247.835 320.289 252.285 318.974 256.308C317.08 259.963 314.433 263.069 311.086 265.66C307.217 267.921 302.749 269.729 297.783 271.157C292.484 272.388 286.855 273.359 280.998 274.143C275.057 274.918 269.053 275.629 263.068 276.347C257.208 277.216 251.472 278.193 245.906 279.309C240.587 280.689 235.463 282.261 230.535 284.036C225.878 286.109 221.385 288.388 217.044 290.845C212.92 293.578 208.877 296.452 204.889 299.426C201.054 302.601 197.214 305.794 193.35 308.958C189.588 312.193 185.775 315.308 181.907 318.233C178.135 321.086 174.317 323.651 170.481 325.837C164.909 328.584 154.205 331.025 149.224 330.474C144.692 328.687 136.715 321.242 133.252 315.691C131.138 311.545 129.112 306.909 127.158 301.847C125.224 296.738 123.315 291.476 121.394 286.161C119.37 281.01 117.261 275.923 115.049 270.964C112.646 266.318 110.108 261.86 107.422 257.626C104.528 253.755 101.501 250.094 98.3701 246.655C95.0565 243.551 91.6762 240.611 88.2815 237.809C84.7788 235.272 81.3167 232.811 77.957 230.386C74.5791 228.141 71.3635 225.874 68.3795 223.567C64.1436 220.205 57.4451 213.096 55.1368 209.314C53.5104 205.447 52.6234 197.253 53.3448 192.967C54.6633 188.6 59.1456 179.566 62.1293 174.902C64.1754 171.719 66.4075 168.475 68.7851 165.176C71.0428 161.787 73.3866 158.319 75.7935 154.788C78.0082 151.128 80.2478 147.395 82.5074 143.594C84.5567 139.66 86.5854 135.758 88.6035 131.907C90.4637 127.956 92.367 124.078 94.3277 120.294C96.2303 116.452 98.2603 112.734 100.431 109.156C102.638 105.566 105.058 102.132 107.697 98.8733C110.456 95.638 113.473 92.5884 116.758 89.7226C120.201 86.8981 123.923 84.2636 127.911 81.8135C132.068 79.4246 136.48 77.2046 141.114 75.1696C145.893 73.1964 150.874 71.3952 156 69.7735C161.222 68.2203 166.558 66.8498 171.955 65.6731C177.388 64.5924 182.841 63.7235 188.263 63.0791C193.654 62.5543 198.974 62.2941 204.181 62.3028C209.304 62.4795 214.276 62.9663 219.075 63.7715C223.751 64.7712 228.232 66.1131 232.487 67.8133C236.627 69.7062 240.546 71.9468 244.233 74.5426C247.824 77.2906 251.206 80.357 254.382 83.7132C257.51 87.1573 260.468 90.8333 263.258 94.7056" stroke="url(#paint8_linear_2203_884)" stroke-width="2" stroke-linecap="round"/>
<path opacity="0.43" d="M263.285 103.792C265.611 107.607 267.732 111.426 269.676 115.201C271.686 118.877 273.534 122.457 275.235 125.921C277.854 130.788 282.498 139.457 284.489 143.243C287.977 149.507 291.591 157.451 292.203 159.889C293.154 165.233 294.401 175.305 295.04 179.706C295.736 182.966 296.514 186.525 297.378 190.388C298.511 194.487 299.732 198.875 301.023 203.515C302.502 208.341 304.002 213.36 305.451 218.512C306.945 223.728 308.284 228.977 309.375 234.183C310.317 239.287 310.866 244.218 310.95 248.908C310.674 253.341 309.8 257.428 308.263 261.111C306.242 264.431 303.574 267.252 300.294 269.578C296.57 271.583 292.311 273.165 287.596 274.38C282.586 275.394 277.249 276.16 271.667 276.731C265.982 277.263 260.178 277.725 254.338 278.175C248.559 278.739 242.832 279.381 237.195 280.143C231.729 281.115 226.391 282.26 221.204 283.578C216.218 285.159 211.37 286.911 206.649 288.827C202.129 290.974 197.7 293.251 193.35 295.61C189.164 298.136 185.02 300.677 180.924 303.175C176.954 305.743 173.008 308.174 169.088 310.423C165.305 312.611 161.552 314.517 157.858 316.081C152.589 317.942 142.834 318.919 138.452 317.841C134.556 315.703 127.936 308.034 125.176 302.599C123.528 298.602 121.973 294.161 120.492 289.327C119.037 284.457 117.612 279.431 116.18 274.33C114.651 269.36 113.056 264.418 111.367 259.562C109.501 254.955 107.514 250.491 105.401 246.198C103.094 242.21 100.667 238.398 98.1472 234.773C95.4489 231.442 92.6945 228.272 89.9307 225.241C87.0439 222.461 84.1984 219.772 81.4452 217.168C77.3428 213.556 70.1322 206.612 67.2324 203.188C63.374 196.427 61.7806 185.984 62.7531 182.373C64.2371 178.72 68.8786 171.15 71.8864 167.217C73.9381 164.507 76.1622 161.731 78.546 158.887C80.8149 155.935 83.1831 152.901 85.6274 149.784C87.9088 146.531 90.2289 143.184 92.5946 139.753C94.775 136.186 96.9509 132.624 99.1263 129.084C101.164 125.437 103.241 121.84 105.383 118.315C107.453 114.728 109.641 111.245 111.962 107.874C114.291 104.494 116.807 101.26 119.512 98.179C122.301 95.1301 125.318 92.2562 128.56 89.5625C131.926 86.9293 135.54 84.4867 139.375 82.2374C143.346 80.0566 147.543 78.0734 151.932 76.2928C156.44 74.5925 161.112 73.0899 165.922 71.7898C170.809 70.5844 175.785 69.5841 180.807 68.8037C185.865 68.1344 190.926 67.6919 195.943 67.4874C200.936 67.4207 205.848 67.6115 210.639 68.0702C215.353 68.6872 219.914 69.5953 224.293 70.8031C228.56 72.1837 232.624 73.8714 236.464 75.8746C240.186 78.0466 243.691 80.5234 246.947 83.2969C250.116 86.1994 253.067 89.3755 255.796 92.7904C258.473 96.2756 260.97 99.9534 263.28 103.788" stroke="url(#paint9_linear_2203_884)" stroke-width="2" stroke-linecap="round" stroke-dasharray="9 5"/>
<path opacity="0.94" d="M261.958 111.974C263.821 115.702 265.478 119.411 266.96 123.076C268.505 126.648 269.897 130.131 271.137 133.493C273.925 139.799 276.175 145.526 277.878 150.623C280.021 155.129 281.567 159.161 282.515 162.847C283.888 166.323 284.732 169.871 285.166 173.719C286.22 177.953 287.127 182.956 288.055 188.868C289.845 195.595 291.789 203.401 293.816 212.13C296.393 221.425 298.591 231.182 299.984 240.895C300.492 245.598 300.627 250.132 300.322 254.432C299.719 258.477 298.588 262.198 296.87 265.542C294.753 268.546 292.074 271.074 288.869 273.153C285.288 274.922 281.238 276.299 276.778 277.321C267.115 278.805 256.395 279.49 245.162 279.844C233.996 280.476 222.904 281.434 212.164 282.903C202.052 285.201 192.348 288.049 183.075 291.257C174.427 295.012 166.092 298.657 158.118 301.765C150.773 304.672 143.848 306.414 137.515 306.586C131.986 305.881 127.174 303.239 123.169 298.525C121.462 295.806 119.93 292.604 118.559 288.943C117.312 285.117 116.184 280.901 115.139 276.33C114.122 271.725 113.137 266.976 112.163 262.138C111.11 257.412 110.003 252.682 108.824 248.006C105.983 239.281 102.711 231.024 99.0952 223.4C94.8138 216.799 90.4331 210.718 86.2596 205.124C81.8796 200.263 78.1498 195.62 75.3804 191.138C72.8861 187.045 71.6393 182.941 71.756 178.842C72.2821 174.878 74.1236 170.813 77.1938 166.662C80.3514 162.389 84.4181 157.866 89.1863 153.097C91.4253 150.557 93.7766 147.922 96.2216 145.197C98.5149 142.342 100.879 139.376 103.306 136.315C105.572 133.118 107.85 129.906 110.145 126.694C112.313 123.38 114.532 120.094 116.808 116.855C121.178 110.217 126.052 103.967 131.506 98.25C137.168 92.6444 143.643 87.7382 150.867 83.6072C158.485 79.8116 166.825 76.8424 175.623 74.7296C184.648 73.0624 193.887 72.2976 203.012 72.484C211.997 73.23 220.578 75.0075 228.466 77.8664C235.958 81.3541 242.631 85.9288 248.333 91.5456C251.053 94.5279 253.555 97.7358 255.826 101.139C258.062 104.603 260.106 108.223 261.953 111.97" stroke="url(#paint10_linear_2203_884)" stroke-width="2" stroke-linecap="round" stroke-dasharray="4 2"/>
<path opacity="0.91" d="M259.677 119.313C262.571 126.469 264.766 133.446 266.379 140.037C268.381 146.188 269.91 151.831 271.006 156.92C272.578 161.55 273.714 165.779 274.437 169.734C275.656 173.547 276.52 177.457 277.113 181.66C278.313 186.232 279.402 191.48 280.459 197.533C282.21 204.268 283.953 211.894 285.583 220.265C287.567 229.033 289.037 238.12 289.628 247.062C289.692 255.505 288.205 263.1 284.798 269.419C280.099 274.471 273.509 277.845 265.355 279.776C256.307 280.9 246.223 281.21 235.565 281.116C224.851 281.141 214.051 281.335 203.443 281.874C193.292 283.044 183.472 284.625 174.099 286.462C165.314 288.752 156.964 290.909 149.148 292.594C142.001 294.131 135.462 294.667 129.678 293.873C124.7 292.392 120.534 289.281 117.261 284.425C114.678 278.858 112.768 271.723 111.392 263.218C110.116 254.609 108.934 245.604 107.65 236.621C105.838 228.265 103.699 220.26 101.301 212.786C98.284 206.174 95.197 200.069 92.2959 194.487C89.1283 189.586 86.5199 185.024 84.7308 180.775C82.7733 175.096 84.8949 164.594 88.9792 159.455C92.0681 155.881 96.0026 152.097 100.632 148.068C104.877 143.601 109.56 138.734 114.597 133.488C119.077 127.698 123.723 121.852 128.539 116.102C133.091 110.095 138.092 104.422 143.562 99.2342C149.143 94.1465 155.397 89.727 162.232 86.0772C169.335 82.7596 177.002 80.2916 185 78.706C193.144 77.5866 201.402 77.3915 209.494 78.1494C217.432 79.447 224.947 81.7363 231.788 85.0146C238.264 88.852 243.955 93.6485 248.714 99.3227C253.177 105.37 256.835 112.095 259.672 119.309" stroke="url(#paint11_linear_2203_884)" stroke-width="2" stroke-linecap="round" stroke-dasharray="10 10"/>
<path opacity="0.1" d="M256.814 125.99C258.923 132.807 260.384 139.457 261.343 145.767C262.66 151.737 263.596 157.287 264.2 162.387C265.285 167.147 266.065 171.6 266.581 175.848C267.612 180.039 268.406 184.348 269.029 188.934C270.219 193.849 271.298 199.363 272.297 205.539C273.842 212.256 275.25 219.684 276.401 227.666C277.765 235.89 278.532 244.286 278.397 252.446C277.804 260.08 275.806 266.899 272.126 272.525C267.416 276.99 261.098 279.913 253.424 281.496C245.003 282.291 235.62 282.264 225.655 281.752C215.56 281.223 205.274 280.704 195.079 280.354C185.211 280.457 175.617 280.823 166.462 281.336C157.837 282.203 149.715 282.941 142.243 283.265C135.435 283.491 129.353 282.892 124.133 281.207C119.677 279.02 116.107 275.5 113.477 270.568C111.463 265.099 110.168 258.335 109.465 250.425C108.855 242.432 108.434 234.096 108.005 225.761C107.121 217.91 106.035 210.329 104.771 203.214C102.943 196.799 101.084 190.866 99.3896 185.456C97.3821 180.663 95.8414 176.282 94.9696 172.3C94.1216 167.056 97.3353 157.913 101.456 153.611C104.468 150.615 108.246 147.44 112.684 144.05C116.788 140.237 121.358 136.046 126.333 131.514C130.833 126.436 135.54 121.3 140.437 116.237C145.076 110.903 150.1 105.87 155.503 101.284C160.937 96.7617 166.894 92.8763 173.283 89.732C179.821 86.8974 186.768 84.9086 193.922 83.793C201.129 83.1223 208.368 83.3723 215.387 84.5496C222.23 86.223 228.65 88.8295 234.416 92.3459C239.854 96.336 244.546 101.169 248.379 106.762C251.954 112.657 254.774 119.12 256.814 125.99Z" stroke="url(#paint12_linear_2203_884)" stroke-width="2" stroke-linecap="round" stroke-dasharray="6 8"/>
<path opacity="0.24" d="M253.674 132.24C255.077 138.666 255.91 144.955 256.318 150.966C257.056 156.731 257.483 162.184 257.671 167.294C258.323 172.168 258.769 176.836 259.053 181.386C259.833 185.925 260.465 190.609 260.974 195.544C261.988 200.768 262.888 206.487 263.656 212.732C264.852 219.38 265.813 226.552 266.424 234.087C267.157 241.741 267.254 249.426 266.476 256.792C265.313 263.636 262.903 269.683 259.036 274.624C254.369 278.521 248.352 281.008 241.191 282.251C233.421 282.751 224.791 282.409 215.61 281.523C206.281 280.515 196.708 279.364 187.178 278.228C177.873 277.374 168.797 276.636 160.15 275.962C151.971 275.542 144.319 274.977 137.379 274.08C131.048 273.117 125.511 271.506 120.881 269.051C116.95 266.235 113.939 262.375 111.871 257.417C110.352 252.069 109.579 245.694 109.444 238.4C109.393 231.04 109.616 223.424 109.932 215.815C109.857 208.568 109.693 201.554 109.449 194.948C108.688 188.895 107.937 183.288 107.323 178.206C106.103 171.577 105.976 161.016 107.667 156.807C109.074 154.215 111.3 151.747 114.327 149.36C117.259 146.807 120.875 144.132 125.099 141.298C129.038 138.039 133.448 134.472 138.289 130.608C142.736 126.229 147.415 121.805 152.278 117.444C156.905 112.809 161.856 108.452 167.091 104.506C172.3 100.587 177.893 97.2703 183.78 94.6464C189.722 92.2955 195.922 90.7436 202.215 90.0399C208.482 89.7326 214.695 90.3073 220.645 91.7582C226.401 93.6417 231.728 96.4027 236.449 99.9809C240.865 103.95 244.603 108.675 247.559 114.053C250.29 119.658 252.331 125.769 253.674 132.24Z" stroke="url(#paint13_linear_2203_884)" stroke-width="2" stroke-linecap="round" stroke-dasharray="10 10"/>
<path opacity="0.7" d="M250.443 138.34C251.225 144.329 251.539 150.232 251.486 155.944C251.73 161.481 251.724 166.811 251.549 171.908C251.793 176.856 251.905 181.697 251.913 186.494C252.377 191.312 252.741 196.284 253.009 201.486C253.707 206.918 254.275 212.743 254.681 218.943C255.396 225.432 255.838 232.274 255.879 239.305C255.986 246.352 255.458 253.303 254.127 259.873C252.484 265.938 249.755 271.233 245.783 275.496C241.21 278.848 235.526 280.917 228.912 281.828C221.82 282.062 213.991 281.452 205.684 280.254C197.234 278.852 188.545 277.181 179.868 275.39C171.36 273.742 163.051 272.089 155.157 270.41C147.653 268.899 140.683 267.237 134.427 265.306C128.722 263.34 123.812 260.879 119.815 257.787C116.422 254.453 113.939 250.347 112.386 245.419C111.289 240.22 110.955 234.241 111.289 227.575C111.697 220.852 112.445 213.965 113.367 207.136C113.966 200.556 114.579 194.199 115.178 188.217C115.334 182.64 115.528 177.493 115.855 172.841C115.992 166.693 117.942 157.042 120.225 153.302C121.895 150.998 124.217 148.855 127.204 146.824C130.073 144.626 133.533 142.359 137.541 139.985C141.297 137.216 145.521 134.206 150.17 130.968C154.502 127.251 159.058 123.521 163.784 119.867C168.301 115.932 173.078 112.265 178.059 108.973C182.962 105.679 188.135 102.939 193.466 100.835C198.781 98.9425 204.226 97.8013 209.664 97.4411C215.015 97.4143 220.239 98.2114 225.166 99.8163C229.889 101.78 234.192 104.544 237.926 108.041C241.388 111.853 244.24 116.335 246.396 121.396C248.361 126.628 249.708 132.32 250.443 138.34Z" stroke="url(#paint14_linear_2203_884)" stroke-width="2" stroke-linecap="round" stroke-dasharray="8 6"/>
<path opacity="0.87" d="M247.206 144.558C247.471 150.081 247.335 155.58 246.902 160.968C246.719 166.243 246.341 171.413 245.833 176.456C245.688 181.417 245.455 186.349 245.152 191.284C245.234 196.266 245.246 201.403 245.169 206.727C245.436 212.227 245.567 218.021 245.511 224.054C245.693 230.268 245.567 236.685 245.049 243.143C244.553 249.539 243.469 255.742 241.674 261.511C239.637 266.813 236.684 271.379 232.697 274.99C228.274 277.815 222.966 279.479 216.933 280.084C210.54 280.076 203.55 279.253 196.18 277.806C188.681 276.117 180.987 274.059 173.313 271.782C165.763 269.535 158.41 267.177 151.44 264.726C144.796 262.37 138.67 259.865 133.231 257.132C128.253 254.389 124.039 251.274 120.702 247.721C117.864 244.011 115.889 239.749 114.806 234.922C114.094 229.914 114.125 224.345 114.826 218.3C115.594 212.209 116.748 206.065 118.136 200.018C119.261 194.142 120.484 188.488 121.761 183.184C122.649 178.17 123.616 173.549 124.695 169.393C125.961 163.816 129.659 155.11 132.445 151.782C135.559 148.771 144.191 143.198 149.63 140.244C153.213 137.899 157.212 135.39 161.612 132.728C165.773 129.628 170.128 126.555 174.624 123.581C178.948 120.339 183.458 117.35 188.093 114.713C192.627 112.033 197.319 109.85 202.068 108.251C206.749 106.797 211.455 106.023 216.056 105.951C220.544 106.137 224.849 107.062 228.823 108.725C232.602 110.662 235.974 113.313 238.816 116.636C241.426 120.182 243.486 124.33 244.939 129C246.233 133.794 246.989 139.007 247.206 144.558Z" stroke="url(#paint15_linear_2203_884)" stroke-width="2" stroke-linecap="round" stroke-dasharray="10 4"/>
<path opacity="0.82" d="M243.933 151.1C243.765 156.132 243.262 161.212 242.519 166.253C241.971 171.224 241.263 176.18 240.451 181.089C239.941 185.966 239.349 190.874 238.706 195.82C238.377 200.817 237.976 205.952 237.485 211.234C237.271 216.632 236.91 222.231 236.354 227.957C235.975 233.778 235.296 239.666 234.249 245.479C233.205 251.181 231.653 256.626 229.488 261.597C227.148 266.153 224.058 270.016 220.151 273.003C215.932 275.332 211.05 276.615 205.62 276.944C199.938 276.73 193.81 275.748 187.404 274.139C180.903 272.271 174.267 269.971 167.686 267.382C161.19 264.753 154.899 261.931 148.969 258.965C143.299 256.042 138.117 252.95 133.563 249.684C129.392 246.41 125.916 242.868 123.248 239.035C120.98 235.115 119.502 230.821 118.832 226.165C118.469 221.399 118.803 216.268 119.791 210.827C120.822 205.359 122.27 199.928 123.984 194.648C125.494 189.477 127.158 184.544 128.914 179.933C130.358 175.511 131.906 171.454 133.552 167.82C135.693 162.86 140.772 155.111 143.958 152.162C147.309 149.458 155.821 144.593 160.962 142.112C164.367 140.134 168.138 138.066 172.247 135.928C176.18 133.404 180.274 130.942 184.46 128.601C188.5 126.013 192.664 123.669 196.883 121.645C201.002 119.557 205.173 117.913 209.317 116.779C213.37 115.729 217.357 115.269 221.186 115.436C226.609 116.283 235.688 121.504 239.03 125.797C240.911 129.018 242.295 132.777 243.152 137.013C243.879 141.325 244.137 146.044 243.933 151.1Z" stroke="url(#paint16_linear_2203_884)" stroke-width="2" stroke-linecap="round" stroke-dasharray="6 10"/>
<path opacity="0.94" d="M240.504 158.076C239.998 162.609 239.2 167.235 238.194 171.895C237.352 176.512 236.357 181.182 235.271 185.86C234.412 190.537 233.48 195.283 232.495 200.083C231.745 204.931 230.924 209.894 230.011 214.947C229.302 220.074 228.45 225.317 227.408 230.587C226.492 235.888 225.315 241.157 223.808 246.267C222.303 251.243 220.377 255.914 217.961 260.101C215.419 263.935 212.299 267.125 208.547 269.524C204.586 271.389 200.163 272.324 195.365 272.408C190.399 272.042 185.127 270.96 179.693 269.278C174.193 267.34 168.631 264.952 163.154 262.23C157.756 259.423 152.554 256.38 147.705 253.158C143.053 249.927 138.847 246.536 135.207 242.997C131.859 239.452 129.133 235.717 127.114 231.801C125.41 227.835 124.402 223.645 124.115 219.241C124.054 214.782 124.636 210.1 125.82 205.262C127.045 200.409 128.675 195.666 130.581 191.116C132.339 186.631 134.29 182.385 136.354 178.442C139.143 172.879 144.91 163.673 147.986 160.058C150.979 156.865 157.967 151.846 162.073 149.79C166.319 147.593 176.141 143.036 181.685 140.527C185.347 138.517 189.114 136.62 192.928 134.859C196.631 132.868 200.387 131.116 204.139 129.66C209.612 127.533 220.076 125.461 224.838 125.732C229.182 126.702 236.089 131.624 238.438 135.511C239.706 138.376 240.536 141.718 240.907 145.495C241.18 149.315 241.045 153.53 240.504 158.076Z" stroke="url(#paint17_linear_2203_884)" stroke-width="2" stroke-linecap="round"/>
<path opacity="0.72" d="M236.748 165.478C235.281 173.506 232.922 182.045 230.124 190.728C228.012 199.432 225.548 208.559 222.795 217.808C220.622 227.217 217.797 236.716 214.066 245.532C210.347 253.795 205.158 260.512 198.262 264.639C190.835 267.064 182.279 266.407 173.336 263.337C164.245 259.327 155.355 253.76 147.608 247.33C140.455 240.774 135.027 233.563 131.971 225.976C129.83 218.285 130.01 210.051 132.548 201.58C135.223 193.067 139.189 185.281 143.774 178.602C147.635 172.155 151.993 166.884 156.73 162.939C160.838 159.026 165.665 156.058 171.256 153.929C176.471 151.159 182.605 148.633 189.578 146.388C196.201 143.038 203.025 140.337 209.614 138.538C215.886 136.328 221.814 135.616 226.859 136.581C231.462 137.742 234.943 140.798 236.878 145.647C238.341 150.722 238.32 157.412 236.748 165.478Z" stroke="url(#paint18_linear_2203_884)" stroke-width="2" stroke-linecap="round" stroke-dasharray="2 2"/>
<path opacity="0.47" d="M232.469 173.164C230.63 180.165 227.967 187.744 224.86 195.537C222.235 203.363 219.212 211.564 215.897 219.751C212.976 227.98 209.482 236.087 205.318 243.366C201.163 250.138 195.961 255.458 189.624 258.522C182.987 260.28 175.785 259.424 168.573 256.489C161.305 252.768 154.432 247.564 148.634 241.512C143.275 235.28 139.409 228.448 137.512 221.402C136.248 214.298 136.934 206.921 139.607 199.602C142.39 192.257 146.35 185.718 150.91 180.203C154.963 174.768 159.494 170.355 164.307 167.053C168.63 163.662 173.466 161.085 178.766 159.282C183.79 156.905 189.45 154.889 195.639 153.294C201.617 150.807 207.559 149.007 213.103 148.025C218.425 146.64 223.231 146.496 227.119 147.709C230.663 148.956 233.123 151.747 234.209 156.005C234.955 160.369 234.39 166.136 232.469 173.164Z" stroke="url(#paint19_linear_2203_884)" stroke-width="2" stroke-linecap="round" stroke-dasharray="8 5"/>
<path opacity="0.35" d="M227.498 180.866C225.45 186.829 222.63 193.34 219.371 200.061C216.419 206.808 213.05 213.825 209.396 220.723C206.003 227.592 202.135 234.191 197.815 239.94C193.517 245.251 188.526 249.285 182.899 251.42C177.116 252.602 171.209 251.651 165.58 248.981C159.953 245.699 154.852 241.107 150.758 235.74C146.962 230.185 144.426 224.092 143.491 217.86C142.962 211.6 144.013 205.218 146.691 199.039C149.448 192.847 153.223 187.438 157.535 182.952C161.527 178.456 165.956 174.816 170.598 172.095C174.902 169.208 179.561 167.021 184.465 165.533C189.19 163.563 194.305 162.009 199.679 160.957C204.946 159.214 209.977 158.154 214.512 157.818C220.788 157.264 229.041 161.34 230.306 166.294C230.534 170.001 229.613 174.886 227.498 180.866Z" stroke="url(#paint20_linear_2203_884)" stroke-width="2" stroke-linecap="round" stroke-dasharray="2 5"/>
<path opacity="0.64" d="M221.73 188.227C219.625 193.141 216.82 198.501 213.596 204.011C210.549 209.536 207.096 215.21 203.387 220.689C199.835 226.097 195.921 231.175 191.741 235.463C187.592 239.404 183.053 242.28 178.238 243.639C173.371 244.348 168.691 243.387 164.456 241.097C160.254 238.353 156.644 234.53 153.934 230.056C151.422 225.414 149.951 220.309 149.73 215.097C149.759 209.863 151.023 204.579 153.574 199.53C156.18 194.471 159.614 190.112 163.512 186.519C167.219 182.887 171.32 179.945 175.575 177.734C179.621 175.36 183.914 173.565 188.304 172.368C192.593 170.805 197.076 169.668 201.614 169.059C208.164 167.698 218.73 167.715 222.213 169.453C224.627 171.895 224.436 181.287 221.73 188.227Z" stroke="url(#paint21_linear_2203_884)" stroke-width="2" stroke-linecap="round" stroke-dasharray="8 5"/>
<path opacity="0.43" d="M215.15 194.82C211.219 202.546 204.954 211.501 197.96 219.617C191.311 227.464 183.51 233.626 175.702 235.511C167.862 235.764 161.558 231.349 158.129 224.521C155.178 217.205 155.633 208.556 160.134 200.675C164.773 192.786 171.807 187.014 179.268 183.664C186.314 179.78 194.114 177.477 201.462 177.253C208.784 175.707 214.348 176.49 217.151 179.371C219.684 181.846 219.193 187.08 215.15 194.82Z" stroke="url(#paint22_linear_2203_884)" stroke-width="2" stroke-linecap="round" stroke-dasharray="4 9"/>
<path opacity="0.85" d="M207.849 200.201C204.41 205.855 199.08 212.111 193.211 217.516C187.516 222.717 181.123 226.535 175.22 227.364C169.368 227.291 165.165 224.075 163.302 219.206C161.685 214.031 162.589 207.824 166.356 202.1C170.197 196.373 175.838 192.124 181.784 189.612C187.566 186.749 193.809 185.139 199.359 185.228C206.907 185.107 211.734 192.498 207.849 200.201Z" stroke="url(#paint23_linear_2203_884)" stroke-width="2" stroke-linecap="round" stroke-dasharray="9 3"/>
<path opacity="0.44" d="M200.017 203.965C194.875 211.263 184.525 218.791 176.625 219.492C168.926 218.654 166.876 210.837 172.313 203.495C177.886 196.163 188.126 191.899 195.545 192.715C203.141 192.14 205.289 196.685 200.017 203.965Z" stroke="url(#paint24_linear_2203_884)" stroke-width="2" stroke-linecap="round" stroke-dasharray="10 1"/>
<defs>
<linearGradient id="paint0_linear_2203_884" x1="18882.7" y1="9.17517" x2="18882.7" y2="38017.5" gradientUnits="userSpaceOnUse">
<stop stop-color="#452277"/>
<stop offset="1" stop-color="#9061D1"/>
</linearGradient>
<linearGradient id="paint1_linear_2203_884" x1="18148.6" y1="1282.34" x2="15571.6" y2="37815.3" gradientUnits="userSpaceOnUse">
<stop stop-color="#452277"/>
<stop offset="1" stop-color="#9061D1"/>
</linearGradient>
<linearGradient id="paint2_linear_2203_884" x1="17330.9" y1="2451.43" x2="12384.2" y2="37339" gradientUnits="userSpaceOnUse">
<stop stop-color="#452277"/>
<stop offset="1" stop-color="#9061D1"/>
</linearGradient>
<linearGradient id="paint3_linear_2203_884" x1="16440.7" y1="3511.29" x2="9343.25" y2="36602.7" gradientUnits="userSpaceOnUse">
<stop stop-color="#452277"/>
<stop offset="1" stop-color="#9061D1"/>
</linearGradient>
<linearGradient id="paint4_linear_2203_884" x1="15489" y1="4457.59" x2="6469.35" y2="35622.8" gradientUnits="userSpaceOnUse">
<stop stop-color="#452277"/>
<stop offset="1" stop-color="#9061D1"/>
</linearGradient>
<linearGradient id="paint5_linear_2203_884" x1="14487.1" y1="5287.17" x2="3782.1" y2="34418.4" gradientUnits="userSpaceOnUse">
<stop stop-color="#452277"/>
<stop offset="1" stop-color="#9061D1"/>
</linearGradient>
<linearGradient id="paint6_linear_2203_884" x1="13446.2" y1="5997.58" x2="1296.55" y2="33014.7" gradientUnits="userSpaceOnUse">
<stop stop-color="#452277"/>
<stop offset="1" stop-color="#9061D1"/>
</linearGradient>
<linearGradient id="paint7_linear_2203_884" x1="12378.3" y1="6587.63" x2="-969.006" y2="31427.6" gradientUnits="userSpaceOnUse">
<stop stop-color="#452277"/>
<stop offset="1" stop-color="#9061D1"/>
</linearGradient>
<linearGradient id="paint8_linear_2203_884" x1="11294" y1="7056.57" x2="-2990.87" y2="29663.5" gradientUnits="userSpaceOnUse">
<stop stop-color="#452277"/>
<stop offset="1" stop-color="#9061D1"/>
</linearGradient>
<linearGradient id="paint9_linear_2203_884" x1="10205.6" y1="7405.4" x2="-4811.82" y2="27829.4" gradientUnits="userSpaceOnUse">
<stop stop-color="#452277"/>
<stop offset="1" stop-color="#9061D1"/>
</linearGradient>
<linearGradient id="paint10_linear_2203_884" x1="9124.18" y1="7635.94" x2="-6374.68" y2="25869.6" gradientUnits="userSpaceOnUse">
<stop stop-color="#452277"/>
<stop offset="1" stop-color="#9061D1"/>
</linearGradient>
<linearGradient id="paint11_linear_2203_884" x1="8057.41" y1="7747.01" x2="-7692.62" y2="23827.8" gradientUnits="userSpaceOnUse">
<stop stop-color="#452277"/>
<stop offset="1" stop-color="#9061D1"/>
</linearGradient>
<linearGradient id="paint12_linear_2203_884" x1="7023.65" y1="7749.31" x2="-8755.11" y2="21736.2" gradientUnits="userSpaceOnUse">
<stop stop-color="#452277"/>
<stop offset="1" stop-color="#9061D1"/>
</linearGradient>
<linearGradient id="paint13_linear_2203_884" x1="6029.03" y1="7643.73" x2="-9563.96" y2="19614.7" gradientUnits="userSpaceOnUse">
<stop stop-color="#452277"/>
<stop offset="1" stop-color="#9061D1"/>
</linearGradient>
<linearGradient id="paint14_linear_2203_884" x1="5083.4" y1="7435.44" x2="-10119.5" y2="17487.5" gradientUnits="userSpaceOnUse">
<stop stop-color="#452277"/>
<stop offset="1" stop-color="#9061D1"/>
</linearGradient>
<linearGradient id="paint15_linear_2203_884" x1="4196.59" y1="7131.36" x2="-10423.4" y2="15379.5" gradientUnits="userSpaceOnUse">
<stop stop-color="#452277"/>
<stop offset="1" stop-color="#9061D1"/>
</linearGradient>
<linearGradient id="paint16_linear_2203_884" x1="3377.61" y1="6739.14" x2="-10479.1" y2="13315.1" gradientUnits="userSpaceOnUse">
<stop stop-color="#452277"/>
<stop offset="1" stop-color="#9061D1"/>
</linearGradient>
<linearGradient id="paint17_linear_2203_884" x1="2633.76" y1="6265.22" x2="-10292.5" y2="11316.3" gradientUnits="userSpaceOnUse">
<stop stop-color="#452277"/>
<stop offset="1" stop-color="#9061D1"/>
</linearGradient>
<linearGradient id="paint18_linear_2203_884" x1="1973.73" y1="5722.01" x2="-9869.99" y2="9410.91" gradientUnits="userSpaceOnUse">
<stop stop-color="#452277"/>
<stop offset="1" stop-color="#9061D1"/>
</linearGradient>
<linearGradient id="paint19_linear_2203_884" x1="1404.27" y1="5122.85" x2="-9216.6" y2="7624.89" gradientUnits="userSpaceOnUse">
<stop stop-color="#452277"/>
<stop offset="1" stop-color="#9061D1"/>
</linearGradient>
<linearGradient id="paint20_linear_2203_884" x1="929.292" y1="4476.66" x2="-8344.81" y2="5980.6" gradientUnits="userSpaceOnUse">
<stop stop-color="#452277"/>
<stop offset="1" stop-color="#9061D1"/>
</linearGradient>
<linearGradient id="paint21_linear_2203_884" x1="549.442" y1="3775.88" x2="-7167.77" y2="4473.63" gradientUnits="userSpaceOnUse">
<stop stop-color="#452277"/>
<stop offset="1" stop-color="#9061D1"/>
</linearGradient>
<linearGradient id="paint22_linear_2203_884" x1="275.704" y1="3095.54" x2="-6028" y2="3218.93" gradientUnits="userSpaceOnUse">
<stop stop-color="#452277"/>
<stop offset="1" stop-color="#9061D1"/>
</linearGradient>
<linearGradient id="paint23_linear_2203_884" x1="99.1528" y1="2350.27" x2="-4462.85" y2="2117.28" gradientUnits="userSpaceOnUse">
<stop stop-color="#452277"/>
<stop offset="1" stop-color="#9061D1"/>
</linearGradient>
<linearGradient id="paint24_linear_2203_884" x1="26.4927" y1="1640.88" x2="-3126.04" y2="1255.56" gradientUnits="userSpaceOnUse">
<stop stop-color="#452277"/>
<stop offset="1" stop-color="#9061D1"/>
</linearGradient>
</defs>
</svg>
