<svg width="62" height="62" viewBox="0 0 62 62" fill="none" xmlns="http://www.w3.org/2000/svg">
<g clip-path="url(#clip0_4234_314)">
<mask id="mask0_4234_314" style="mask-type:luminance" maskUnits="userSpaceOnUse" x="0" y="0" width="62" height="63">
<path d="M62 0H0V62.0001H62V0Z" fill="white"/>
</mask>
<g mask="url(#mask0_4234_314)">
<mask id="mask1_4234_314" style="mask-type:luminance" maskUnits="userSpaceOnUse" x="0" y="0" width="62" height="63">
<path d="M62 0.000244141H0V62.0003H62V0.000244141Z" fill="white"/>
</mask>
<g mask="url(#mask1_4234_314)">
<path d="M62 0.000244141H0V62.0003H62V0.000244141Z" fill="#FF8533" fill-opacity="0.04"/>
<g opacity="0.6" filter="url(#filter0_f_4234_314)">
<path d="M31 69.7501C41.7005 69.7501 50.375 66.2802 50.375 62.0001C50.375 57.7198 41.7005 54.2501 31 54.2501C20.2995 54.2501 11.625 57.7198 11.625 62.0001C11.625 66.2802 20.2995 69.7501 31 69.7501Z" fill="#FF8533"/>
</g>
<g opacity="0.64" filter="url(#filter1_f_4234_314)">
<path d="M31 42.6252C37.4203 42.6252 42.625 37.4206 42.625 31.0002C42.625 24.5799 37.4203 19.3752 31 19.3752C24.5797 19.3752 19.375 24.5799 19.375 31.0002C19.375 37.4206 24.5797 42.6252 31 42.6252Z" fill="#FF8533"/>
</g>
<path opacity="0.24" d="M0.96875 15.5003H61.0312M0.96875 46.5004H61.0312M15.5 61.0317V0.969116M46.5 61.0317V0.969116M5.48958 5.48996L57.1562 57.1567M5.48958 56.5108L56.5104 5.48995M53.2812 31.6463C53.2812 43.9518 43.3056 53.9275 31 53.9275C18.6944 53.9275 8.71875 43.9518 8.71875 31.6463C8.71875 19.3406 18.6944 9.36496 31 9.36496C43.3056 9.36496 53.2812 19.3406 53.2812 31.6463Z" stroke="#FF8533" stroke-width="0.469838" stroke-linecap="round" stroke-linejoin="round"/>
</g>
</g>
<path opacity="0.3" d="M17.5 28.6255C17.5 23.8285 17.5 21.43 18.067 20.623C18.6325 19.8175 20.887 19.045 25.3975 17.5015L26.257 17.2075C28.6075 16.402 29.782 16 31 16C32.218 16 33.3925 16.402 35.743 17.2075L36.6025 17.5015C41.113 19.045 43.3675 19.8175 43.933 20.623C44.5 21.43 44.5 23.83 44.5 28.6255V30.9865C44.5 39.4435 38.1415 43.549 34.1515 45.2905C33.07 45.763 32.53 46 31 46C29.47 46 28.93 45.763 27.8485 45.2905C23.8585 43.5475 17.5 39.445 17.5 30.9865V28.6255Z" stroke="#FF8533" stroke-width="1.8125"/>
<path d="M38.5 31C38.514 31.9938 38.3304 32.9804 37.9599 33.9026C37.5893 34.8247 37.0392 35.664 36.3414 36.3717C35.6436 37.0795 34.8122 37.6414 33.8953 38.025C32.9785 38.4086 31.9946 38.6061 31.0007 38.6061C30.0069 38.6061 29.023 38.4086 28.1061 38.025C27.1893 37.6414 26.3578 37.0795 25.6601 36.3717C24.9623 35.664 24.4121 34.8247 24.0416 33.9026C23.671 32.9804 23.4874 31.9938 23.5015 31C23.5294 29.0295 24.3317 27.1491 25.7351 25.7654C27.1384 24.3818 29.03 23.6061 31.0007 23.6061C32.9715 23.6061 34.863 24.3818 36.2664 25.7654C37.6698 27.1491 38.4721 29.0295 38.5 31Z" stroke="#FF8533" stroke-width="1.8125"/>
<path d="M33.772 33.8695C33.922 32.9605 34 31.9855 34 31C34 30.0145 33.922 29.0395 33.772 28.1305C33.641 27.2984 33.4228 26.4824 33.121 25.696C32.8435 25 32.512 24.448 32.1475 24.0715C31.7845 23.6935 31.3945 23.5 31 23.5C30.6055 23.5 30.2155 23.695 29.8525 24.07C29.488 24.448 29.158 25 28.8775 25.696C28.5762 26.4825 28.3585 27.2985 28.228 28.1305C28.078 29.0395 28 30.0145 28 31C28 31.9855 28.078 32.9605 28.228 33.8695C28.378 34.7785 28.6 35.6065 28.879 36.304C29.1565 37 29.488 37.552 29.8525 37.9285C30.2155 38.3065 30.6055 38.5 31 38.5C31.3945 38.5 31.7845 38.305 32.1475 37.93C32.512 37.552 32.842 37 33.1225 36.3025C33.4237 35.5165 33.6414 34.701 33.772 33.8695Z" stroke="#FF8533" stroke-width="1.8125"/>
<path d="M23.5 31H38.5" stroke="#FF8533" stroke-width="1.8125" stroke-linecap="round"/>
</g>
<rect x="0.25" y="0.25" width="61.5" height="61.5" rx="14.75" stroke="#FF8533" stroke-width="0.5"/>
<defs>
<filter id="filter0_f_4234_314" x="-0.90402" y="41.721" width="63.808" height="40.558" filterUnits="userSpaceOnUse" color-interpolation-filters="sRGB">
<feFlood flood-opacity="0" result="BackgroundImageFix"/>
<feBlend mode="normal" in="SourceGraphic" in2="BackgroundImageFix" result="shape"/>
<feGaussianBlur stdDeviation="6.26451" result="effect1_foregroundBlur_4234_314"/>
</filter>
<filter id="filter1_f_4234_314" x="0.58148" y="0.581724" width="60.837" height="60.837" filterUnits="userSpaceOnUse" color-interpolation-filters="sRGB">
<feFlood flood-opacity="0" result="BackgroundImageFix"/>
<feBlend mode="normal" in="SourceGraphic" in2="BackgroundImageFix" result="shape"/>
<feGaussianBlur stdDeviation="9.39676" result="effect1_foregroundBlur_4234_314"/>
</filter>
<clipPath id="clip0_4234_314">
<rect width="62" height="62" rx="15" fill="white"/>
</clipPath>
</defs>
</svg>
